<svg xmlns="http://www.w3.org/2000/svg" xmlns:xlink="http://www.w3.org/1999/xlink" width="115" height="115" viewBox="0 0 115 115">
  <defs>
    <clipPath id="clip-path">
      <rect id="Rectangle_411487" data-name="Rectangle 411487" width="115" height="115" transform="translate(800.781 1954)" fill="#e8bad8" opacity="0.41"/>
    </clipPath>
    <clipPath id="clip-path-2">
      <path id="path2013" d="M0-682.665H67.585v67.585H0Z" transform="translate(0 682.665)"/>
    </clipPath>
  </defs>
  <g id="Group_1207130" data-name="Group 1207130" transform="translate(6134 262.977)">
    <g id="Mask_Group_1099688" data-name="Mask Group 1099688" transform="translate(-6934.781 -2216.977)" clip-path="url(#clip-path)">
      <g id="Group_1206948" data-name="Group 1206948" transform="translate(799.781 1960.273)">
        <g id="Group_1206947" data-name="Group 1206947">
          <ellipse id="Ellipse_12831" data-name="Ellipse 12831" cx="28.658" cy="28.658" rx="28.658" ry="28.658" transform="translate(56.527 44.289)" fill="#7fe5cf"/>
          <ellipse id="Ellipse_12832" data-name="Ellipse 12832" cx="20.842" cy="20.842" rx="20.842" ry="20.842" fill="#7fe5cf"/>
        </g>
      </g>
    </g>
    <g id="Group_1207129" data-name="Group 1207129" transform="translate(-6 363.708)">
      <g id="g2007" transform="translate(-6105.94 79.665)">
        <g id="g2009" transform="translate(0 -682.665)">
          <g id="g2011" clip-path="url(#clip-path-2)">
            <g id="g2017" transform="translate(0.99 0.99)">
              <path id="path2019" d="M-530.987-597.06h-51.085a7.26,7.26,0,0,1-7.26-7.26V-655.4a7.26,7.26,0,0,1,7.26-7.26h51.085a7.26,7.26,0,0,1,7.26,7.26v51.085a7.26,7.26,0,0,1-7.26,7.26" transform="translate(589.332 662.665)" fill="#c9b979"/>
            </g>
            <g id="g2021" transform="translate(1.037 1.037)">
              <path id="path2023" d="M-538,0V11.624a47.491,47.491,0,0,1-47.491,47.491H-597.11a7.26,7.26,0,0,0,7.213,6.443h51.085a7.26,7.26,0,0,0,7.26-7.26V7.213A7.26,7.26,0,0,0-538,0" transform="translate(597.11)" fill="#c9b979"/>
            </g>
            <g id="g2025" transform="translate(7.433 7.433)">
              <path id="path2027" d="M-474.979-461.765l-1.452,1.452-45.511.528h-3.247a1.98,1.98,0,0,1-1.98-1.98v-48.759a1.98,1.98,0,0,1,1.98-1.98h48.759a1.98,1.98,0,0,1,1.98,1.98v3.248Z" transform="translate(527.169 512.504)" fill="#a09568"/>
            </g>
            <g id="g2029" transform="translate(12.661 12.661)">
              <path id="path2031" d="M0-432.209H45.511a1.98,1.98,0,0,0,1.98-1.98V-479.7A47.491,47.491,0,0,1,0-432.209" transform="translate(0 479.7)" fill="#beb592"/>
            </g>
            <g id="g2033" transform="translate(0 0)">
              <path id="path2035" d="M49.335-216.228H-1.75a8.259,8.259,0,0,1-8.25-8.25v-27.277a.99.99,0,0,1,.99-.99.99.99,0,0,1,.99.99v27.277a6.277,6.277,0,0,0,6.27,6.27H49.335a6.277,6.277,0,0,0,6.27-6.27v-51.085a6.277,6.277,0,0,0-6.27-6.27H-1.75a6.277,6.277,0,0,0-6.27,6.27v19.848a.99.99,0,0,1-.99.99.99.99,0,0,1-.99-.99v-19.848a8.259,8.259,0,0,1,8.25-8.25H49.335a8.259,8.259,0,0,1,8.25,8.25v51.085A8.259,8.259,0,0,1,49.335-216.228Z" transform="translate(10 283.813)"/>
            </g>
            <g id="g2037" transform="translate(6.443 6.443)">
              <path id="path2039" d="M-490.775-388.871h-48.759a2.973,2.973,0,0,1-2.97-2.97V-440.6a2.973,2.973,0,0,1,2.97-2.97h48.759a2.973,2.973,0,0,1,2.97,2.97v36.984a.99.99,0,0,1-.99.99.99.99,0,0,1-.99-.99V-440.6a.991.991,0,0,0-.99-.99h-48.759a.991.991,0,0,0-.99.99v48.759a.991.991,0,0,0,.99.99h48.759a.991.991,0,0,0,.99-.99v-7.815a.99.99,0,0,1,.99-.99.99.99,0,0,1,.99.99v7.815A2.973,2.973,0,0,1-490.775-388.871Z" transform="translate(542.504 443.57)"/>
            </g>
            <g id="g2041" transform="translate(14.351 14.009)">
              <path id="path2043" d="M-.382-8.02H-9.01A.99.99,0,0,1-10-9.01.99.99,0,0,1-9.01-10H-.382a.99.99,0,0,1,.99.99A.99.99,0,0,1-.382-8.02Z" transform="translate(10 10)"/>
            </g>
            <g id="g2045" transform="translate(14.351 50.85)">
              <path id="path2047" d="M-6.369-8.02H-9.01A.99.99,0,0,1-10-9.01.99.99,0,0,1-9.01-10h2.641a.99.99,0,0,1,.99.99A.99.99,0,0,1-6.369-8.02Z" transform="translate(10 10)"/>
            </g>
            <g id="g2049" transform="translate(14.351 18.808)">
              <path id="path2051" d="M-6.369-8.02H-9.01A.99.99,0,0,1-10-9.01.99.99,0,0,1-9.01-10h2.641a.99.99,0,0,1,.99.99A.99.99,0,0,1-6.369-8.02Z" transform="translate(10 10)"/>
            </g>
          </g>
        </g>
      </g>
      <path id="Path_1252390" data-name="Path 1252390" d="M-8.33-12.086l3.486,9.264,3.478-9.264H1.349V0H-.743V-3.984l.208-5.329L-4.1,0h-1.5L-9.168-9.305l.208,5.321V0h-2.092V-12.086ZM3.258-4.574a5.3,5.3,0,0,1,.523-2.378A3.819,3.819,0,0,1,5.25-8.579a4.14,4.14,0,0,1,2.175-.569,3.923,3.923,0,0,1,2.951,1.17,4.6,4.6,0,0,1,1.224,3.1l.008.473a5.343,5.343,0,0,1-.51,2.374A3.773,3.773,0,0,1,9.637-.407a4.17,4.17,0,0,1-2.2.573A3.9,3.9,0,0,1,4.4-1.1,4.848,4.848,0,0,1,3.258-4.474ZM5.275-4.4a3.619,3.619,0,0,0,.573,2.171,1.862,1.862,0,0,0,1.594.784,1.842,1.842,0,0,0,1.59-.8A4,4,0,0,0,9.6-4.574a3.572,3.572,0,0,0-.585-2.158,1.869,1.869,0,0,0-1.59-.8,1.852,1.852,0,0,0-1.569.784A3.922,3.922,0,0,0,5.275-4.4Z" transform="translate(-6072.116 -561.046)"/>
      <path id="Path_1252391" data-name="Path 1252391" d="M-1.079-2.676h.806v1.138h-.806V0H-2.49V-1.538H-5.405l-.063-.889L-2.5-7.109h1.426Zm-2.983,0H-2.49v-2.51l-.093.161ZM5.356,0H.483V-.967l2.3-2.451a5.674,5.674,0,0,0,.7-.9,1.451,1.451,0,0,0,.227-.732A1.086,1.086,0,0,0,3.472-5.8a.864.864,0,0,0-.684-.271.931.931,0,0,0-.754.33,1.306,1.306,0,0,0-.276.867H.342A2.331,2.331,0,0,1,.652-6.06,2.185,2.185,0,0,1,1.528-6.9a2.664,2.664,0,0,1,1.284-.305,2.522,2.522,0,0,1,1.707.527A1.866,1.866,0,0,1,5.127-5.19a2.39,2.39,0,0,1-.273,1.074,5.97,5.97,0,0,1-.937,1.274L2.3-1.138H5.356Z" transform="translate(-6058.116 -582.046)"/>
    </g>
  </g>
</svg>
