<svg xmlns="http://www.w3.org/2000/svg" xmlns:xlink="http://www.w3.org/1999/xlink" width="115" height="115" viewBox="0 0 115 115">
  <defs>
    <clipPath id="clip-path">
      <rect id="Rectangle_411477" data-name="Rectangle 411477" width="115" height="115" transform="translate(800.781 1954)" fill="#e8bad8" opacity="0.41"/>
    </clipPath>
    <clipPath id="clip-path-2">
      <path id="path2013" d="M0-682.665H67.585v67.585H0Z" transform="translate(0 682.665)"/>
    </clipPath>
  </defs>
  <g id="Group_1207131" data-name="Group 1207131" transform="translate(6128 626.977)">
    <g id="Mask_Group_1099683" data-name="Mask Group 1099683" transform="translate(-6928.781 -2580.977)" clip-path="url(#clip-path)">
      <g id="Group_1206938" data-name="Group 1206938" transform="translate(799.781 1960.273)">
        <g id="Group_1206937" data-name="Group 1206937">
          <ellipse id="Ellipse_12821" data-name="Ellipse 12821" cx="28.658" cy="28.658" rx="28.658" ry="28.658" transform="translate(56.527 44.289)" fill="#7fe5cf"/>
          <ellipse id="Ellipse_12822" data-name="Ellipse 12822" cx="20.842" cy="20.842" rx="20.842" ry="20.842" fill="#7fe5cf"/>
        </g>
      </g>
    </g>
    <g id="Group_1207128" data-name="Group 1207128">
      <g id="g2007" transform="translate(-6105.94 79.665)">
        <g id="g2009" transform="translate(0 -682.665)">
          <g id="g2011" clip-path="url(#clip-path-2)">
            <g id="g2017" transform="translate(0.99 0.99)">
              <path id="path2019" d="M-530.987-597.06h-51.085a7.26,7.26,0,0,1-7.26-7.26V-655.4a7.26,7.26,0,0,1,7.26-7.26h51.085a7.26,7.26,0,0,1,7.26,7.26v51.085a7.26,7.26,0,0,1-7.26,7.26" transform="translate(589.332 662.665)" fill="#717171"/>
            </g>
            <g id="g2021" transform="translate(1.037 1.037)">
              <path id="path2023" d="M-538,0V11.624a47.491,47.491,0,0,1-47.491,47.491H-597.11a7.26,7.26,0,0,0,7.213,6.443h51.085a7.26,7.26,0,0,0,7.26-7.26V7.213A7.26,7.26,0,0,0-538,0" transform="translate(597.11)" fill="#53524f"/>
            </g>
            <g id="g2025" transform="translate(7.433 7.433)">
              <path id="path2027" d="M-474.979-461.765l-1.452,1.452-45.511.528h-3.247a1.98,1.98,0,0,1-1.98-1.98v-48.759a1.98,1.98,0,0,1,1.98-1.98h48.759a1.98,1.98,0,0,1,1.98,1.98v3.248Z" transform="translate(527.169 512.504)" fill="#969696"/>
            </g>
            <g id="g2029" transform="translate(12.661 12.661)">
              <path id="path2031" d="M0-432.209H45.511a1.98,1.98,0,0,0,1.98-1.98V-479.7A47.491,47.491,0,0,1,0-432.209" transform="translate(0 479.7)" fill="#c9c9c9"/>
            </g>
            <g id="g2033" transform="translate(0 0)">
              <path id="path2035" d="M49.335-216.228H-1.75a8.259,8.259,0,0,1-8.25-8.25v-27.277a.99.99,0,0,1,.99-.99.99.99,0,0,1,.99.99v27.277a6.277,6.277,0,0,0,6.27,6.27H49.335a6.277,6.277,0,0,0,6.27-6.27v-51.085a6.277,6.277,0,0,0-6.27-6.27H-1.75a6.277,6.277,0,0,0-6.27,6.27v19.848a.99.99,0,0,1-.99.99.99.99,0,0,1-.99-.99v-19.848a8.259,8.259,0,0,1,8.25-8.25H49.335a8.259,8.259,0,0,1,8.25,8.25v51.085A8.259,8.259,0,0,1,49.335-216.228Z" transform="translate(10 283.813)"/>
            </g>
            <g id="g2037" transform="translate(6.443 6.443)">
              <path id="path2039" d="M-490.775-388.871h-48.759a2.973,2.973,0,0,1-2.97-2.97V-440.6a2.973,2.973,0,0,1,2.97-2.97h48.759a2.973,2.973,0,0,1,2.97,2.97v36.984a.99.99,0,0,1-.99.99.99.99,0,0,1-.99-.99V-440.6a.991.991,0,0,0-.99-.99h-48.759a.991.991,0,0,0-.99.99v48.759a.991.991,0,0,0,.99.99h48.759a.991.991,0,0,0,.99-.99v-7.815a.99.99,0,0,1,.99-.99.99.99,0,0,1,.99.99v7.815A2.973,2.973,0,0,1-490.775-388.871Z" transform="translate(542.504 443.57)"/>
            </g>
            <g id="g2041" transform="translate(14.351 14.009)">
              <path id="path2043" d="M-.382-8.02H-9.01A.99.99,0,0,1-10-9.01.99.99,0,0,1-9.01-10H-.382a.99.99,0,0,1,.99.99A.99.99,0,0,1-.382-8.02Z" transform="translate(10 10)"/>
            </g>
            <g id="g2045" transform="translate(14.351 50.85)">
              <path id="path2047" d="M-6.369-8.02H-9.01A.99.99,0,0,1-10-9.01.99.99,0,0,1-9.01-10h2.641a.99.99,0,0,1,.99.99A.99.99,0,0,1-6.369-8.02Z" transform="translate(10 10)"/>
            </g>
            <g id="g2049" transform="translate(14.351 18.808)">
              <path id="path2051" d="M-6.369-8.02H-9.01A.99.99,0,0,1-10-9.01.99.99,0,0,1-9.01-10h2.641a.99.99,0,0,1,.99.99A.99.99,0,0,1-6.369-8.02Z" transform="translate(10 10)"/>
            </g>
          </g>
        </g>
      </g>
      <path id="Path_1252392" data-name="Path 1252392" d="M-8.218-12.086l3.486,9.264,3.478-9.264H1.461V0H-.631V-3.984l.208-5.329L-3.993,0H-5.5L-9.056-9.305l.208,5.321V0H-10.94V-12.086ZM5.62-8.981l.058,1.038a3.229,3.229,0,0,1,2.615-1.2q2.806,0,2.855,3.212V0H9.131V-5.819a1.85,1.85,0,0,0-.369-1.266A1.554,1.554,0,0,0,7.554-7.5a1.944,1.944,0,0,0-1.818,1.1V0H3.719V-8.981Z" transform="translate(-6072.116 -561.046)"/>
      <path id="Path_1252393" data-name="Path 1252393" d="M-.381,0H-5.254V-.967l2.3-2.451a5.674,5.674,0,0,0,.7-.9,1.451,1.451,0,0,0,.227-.732A1.086,1.086,0,0,0-2.266-5.8a.864.864,0,0,0-.684-.271.931.931,0,0,0-.754.33,1.306,1.306,0,0,0-.276.867H-5.4a2.331,2.331,0,0,1,.31-1.187A2.185,2.185,0,0,1-4.209-6.9a2.664,2.664,0,0,1,1.284-.305,2.522,2.522,0,0,1,1.707.527A1.866,1.866,0,0,1-.61-5.19,2.39,2.39,0,0,1-.884-4.116a5.97,5.97,0,0,1-.937,1.274l-1.616,1.7H-.381ZM.693-3.5,1.1-7.109H5.088v1.177H2.261L2.085-4.4a2.237,2.237,0,0,1,1.069-.269,2.049,2.049,0,0,1,1.592.63A2.516,2.516,0,0,1,5.322-2.28a2.578,2.578,0,0,1-.291,1.233A2.051,2.051,0,0,1,4.2-.2,2.6,2.6,0,0,1,2.92.1a2.76,2.76,0,0,1-1.2-.261A2.122,2.122,0,0,1,.852-.9,2,2,0,0,1,.513-1.978h1.4a1.043,1.043,0,0,0,.31.691.983.983,0,0,0,.7.247.868.868,0,0,0,.737-.344,1.6,1.6,0,0,0,.259-.974,1.319,1.319,0,0,0-.3-.928,1.093,1.093,0,0,0-.845-.322,1.222,1.222,0,0,0-.815.264l-.137.127Z" transform="translate(-6058.116 -582.046)"/>
    </g>
  </g>
</svg>
