<svg xmlns="http://www.w3.org/2000/svg" xmlns:xlink="http://www.w3.org/1999/xlink" width="115" height="115" viewBox="0 0 115 115">
  <defs>
    <clipPath id="clip-path">
      <rect id="Rectangle_411037" data-name="Rectangle 411037" width="115" height="115" transform="translate(800.781 1954)" fill="#e8bad8" opacity="0.41"/>
    </clipPath>
  </defs>
  <g id="Group_1207054" data-name="Group 1207054" transform="translate(-1075.05 -10607)">
    <g id="Mask_Group_1099370" data-name="Mask Group 1099370" transform="translate(274.27 8653)" clip-path="url(#clip-path)">
      <g id="Group_1203767" data-name="Group 1203767" transform="translate(799.781 1960.273)">
        <g id="Group_1203766" data-name="Group 1203766">
          <ellipse id="Ellipse_12702" data-name="Ellipse 12702" cx="28.658" cy="28.658" rx="28.658" ry="28.658" transform="translate(56.527 44.289)" fill="#7fe5cf"/>
          <ellipse id="Ellipse_12703" data-name="Ellipse 12703" cx="20.842" cy="20.842" rx="20.842" ry="20.842" fill="#7fe5cf"/>
        </g>
      </g>
    </g>
    <g id="potasio" transform="translate(1101.051 10633)">
      <path id="Path_1252028" data-name="Path 1252028" d="M10,10H71.23V71.23H10Z" transform="translate(-8.755 -8.755)" fill="#ff5d7f"/>
      <path id="Path_1252029" data-name="Path 1252029" d="M99.4,104.278H58.881A4.881,4.881,0,0,1,54,99.4V58.881A4.881,4.881,0,0,1,58.881,54H99.4a4.881,4.881,0,0,1,4.881,4.881V99.4a4.881,4.881,0,0,1-4.881,4.881Z" transform="translate(-47.28 -47.28)" fill="#ff9eb2"/>
      <g id="Group_1207053" data-name="Group 1207053">
        <path id="Path_1252030" data-name="Path 1252030" d="M62.474,0H1.245A1.245,1.245,0,0,0,0,1.245v61.23a1.245,1.245,0,0,0,1.245,1.245h61.23a1.245,1.245,0,0,0,1.245-1.245V1.245A1.245,1.245,0,0,0,62.474,0ZM61.23,61.23H2.489V2.489H61.23Z"/>
        <path id="Path_1252031" data-name="Path 1252031" d="M256.35,104.352a1.244,1.244,0,0,0,1.49,1.994,11.485,11.485,0,0,0,4.088-7.439,4.176,4.176,0,1,0-4.124,3.519c.082,0,.163,0,.244-.008A8.462,8.462,0,0,1,256.35,104.352Zm-.233-6.1a1.687,1.687,0,1,1,1.687,1.687A1.689,1.689,0,0,1,256.116,98.249Z" transform="translate(-222.063 -82.366)"/>
        <path id="Path_1252032" data-name="Path 1252032" d="M194.627,94.074H192.5a1.245,1.245,0,1,0,0,2.489h.884v8.712a1.245,1.245,0,0,0,2.489,0V95.319A1.244,1.244,0,0,0,194.627,94.074Z" transform="translate(-167.452 -82.366)"/>
        <path id="Path_1252033" data-name="Path 1252033" d="M204.909,225.245a1.245,1.245,0,0,0-2.489,0v18.917a1.245,1.245,0,0,0,2.489,0v-7.535l8.739,8.431a1.245,1.245,0,0,0,1.728-1.791l-9.291-8.963,8.6-7.9A1.244,1.244,0,0,0,213,224.567L204.909,232Z" transform="translate(-177.229 -196.123)"/>
        <path id="Path_1252034" data-name="Path 1252034" d="M50.126,96.767H90.641a6.133,6.133,0,0,0,6.126-6.126V50.126A6.133,6.133,0,0,0,90.641,44H50.126A6.133,6.133,0,0,0,44,50.126V64.783a1.245,1.245,0,0,0,2.489,0V50.126a3.641,3.641,0,0,1,3.637-3.637H90.641a3.641,3.641,0,0,1,3.637,3.637V90.641a3.641,3.641,0,0,1-3.637,3.637H50.126a3.641,3.641,0,0,1-3.637-3.637V75.984a1.245,1.245,0,0,0-2.489,0V90.641A6.133,6.133,0,0,0,50.126,96.767Z" transform="translate(-38.524 -38.524)"/>
        <ellipse id="Ellipse_12856" data-name="Ellipse 12856" cx="1.5" cy="1" rx="1.5" ry="1" transform="translate(5 30.719)"/>
      </g>
    </g>
  </g>
</svg>
