<svg xmlns="http://www.w3.org/2000/svg" xmlns:xlink="http://www.w3.org/1999/xlink" width="115" height="115" viewBox="0 0 115 115">
  <defs>
    <clipPath id="clip-path">
      <rect id="Rectangle_411475" data-name="Rectangle 411475" width="115" height="115" transform="translate(800.781 1954)" fill="#e8bad8" opacity="0.41"/>
    </clipPath>
    <clipPath id="clip-path-2">
      <path id="path2013" d="M0-682.665H67.585v67.585H0Z" transform="translate(0 682.665)"/>
    </clipPath>
  </defs>
  <g id="Group_1207060" data-name="Group 1207060" transform="translate(6461 627)">
    <g id="Mask_Group_1099682" data-name="Mask Group 1099682" transform="translate(-7261.781 -2581)" clip-path="url(#clip-path)">
      <g id="Group_1206936" data-name="Group 1206936" transform="translate(799.781 1960.273)">
        <g id="Group_1206935" data-name="Group 1206935">
          <ellipse id="Ellipse_12819" data-name="Ellipse 12819" cx="28.658" cy="28.658" rx="28.658" ry="28.658" transform="translate(56.527 44.289)" fill="#7fe5cf"/>
          <ellipse id="Ellipse_12820" data-name="Ellipse 12820" cx="20.842" cy="20.842" rx="20.842" ry="20.842" fill="#7fe5cf"/>
        </g>
      </g>
    </g>
    <g id="g2007" transform="translate(-6437 79.665)">
      <g id="g2009" transform="translate(0 -682.665)">
        <g id="g2011" clip-path="url(#clip-path-2)">
          <g id="g2017" transform="translate(0.99 0.99)">
            <path id="path2019" d="M-530.987-597.06h-51.085a7.26,7.26,0,0,1-7.26-7.26V-655.4a7.26,7.26,0,0,1,7.26-7.26h51.085a7.26,7.26,0,0,1,7.26,7.26v51.085a7.26,7.26,0,0,1-7.26,7.26" transform="translate(589.332 662.665)" fill="#ffc344"/>
          </g>
          <g id="g2021" transform="translate(1.037 1.037)">
            <path id="path2023" d="M-538,0V11.624a47.491,47.491,0,0,1-47.491,47.491H-597.11a7.26,7.26,0,0,0,7.213,6.443h51.085a7.26,7.26,0,0,0,7.26-7.26V7.213A7.26,7.26,0,0,0-538,0" transform="translate(597.11)" fill="#f6ab31"/>
          </g>
          <g id="g2025" transform="translate(7.433 7.433)">
            <path id="path2027" d="M-474.979-461.765l-1.452,1.452-45.511.528h-3.247a1.98,1.98,0,0,1-1.98-1.98v-48.759a1.98,1.98,0,0,1,1.98-1.98h48.759a1.98,1.98,0,0,1,1.98,1.98v3.248Z" transform="translate(527.169 512.504)" fill="#fff0ad"/>
          </g>
          <g id="g2029" transform="translate(12.661 12.661)">
            <path id="path2031" d="M0-432.209H45.511a1.98,1.98,0,0,0,1.98-1.98V-479.7A47.491,47.491,0,0,1,0-432.209" transform="translate(0 479.7)" fill="#ffe177"/>
          </g>
          <g id="g2033" transform="translate(0 0)">
            <path id="path2035" d="M49.335-216.228H-1.75a8.259,8.259,0,0,1-8.25-8.25v-27.277a.99.99,0,0,1,.99-.99.99.99,0,0,1,.99.99v27.277a6.277,6.277,0,0,0,6.27,6.27H49.335a6.277,6.277,0,0,0,6.27-6.27v-51.085a6.277,6.277,0,0,0-6.27-6.27H-1.75a6.277,6.277,0,0,0-6.27,6.27v19.848a.99.99,0,0,1-.99.99.99.99,0,0,1-.99-.99v-19.848a8.259,8.259,0,0,1,8.25-8.25H49.335a8.259,8.259,0,0,1,8.25,8.25v51.085A8.259,8.259,0,0,1,49.335-216.228Z" transform="translate(10 283.813)"/>
          </g>
          <g id="g2037" transform="translate(6.443 6.443)">
            <path id="path2039" d="M-490.775-388.871h-48.759a2.973,2.973,0,0,1-2.97-2.97V-440.6a2.973,2.973,0,0,1,2.97-2.97h48.759a2.973,2.973,0,0,1,2.97,2.97v36.984a.99.99,0,0,1-.99.99.99.99,0,0,1-.99-.99V-440.6a.991.991,0,0,0-.99-.99h-48.759a.991.991,0,0,0-.99.99v48.759a.991.991,0,0,0,.99.99h48.759a.991.991,0,0,0,.99-.99v-7.815a.99.99,0,0,1,.99-.99.99.99,0,0,1,.99.99v7.815A2.973,2.973,0,0,1-490.775-388.871Z" transform="translate(542.504 443.57)"/>
          </g>
          <g id="g2041" transform="translate(14.351 14.009)">
            <path id="path2043" d="M-.382-8.02H-9.01A.99.99,0,0,1-10-9.01.99.99,0,0,1-9.01-10H-.382a.99.99,0,0,1,.99.99A.99.99,0,0,1-.382-8.02Z" transform="translate(10 10)"/>
          </g>
          <g id="g2045" transform="translate(14.351 50.85)">
            <path id="path2047" d="M-6.369-8.02H-9.01A.99.99,0,0,1-10-9.01.99.99,0,0,1-9.01-10h2.641a.99.99,0,0,1,.99.99A.99.99,0,0,1-6.369-8.02Z" transform="translate(10 10)"/>
          </g>
          <g id="g2049" transform="translate(14.351 18.808)">
            <path id="path2051" d="M-6.369-8.02H-9.01A.99.99,0,0,1-10-9.01.99.99,0,0,1-9.01-10h2.641a.99.99,0,0,1,.99.99A.99.99,0,0,1-6.369-8.02Z" transform="translate(10 10)"/>
          </g>
          <g id="g2053" transform="translate(40.172 12.646)">
            <path id="path2055" d="M-52.473-83.593a6.65,6.65,0,0,1-1.835-.085,1.084,1.084,0,0,1-.667-.676c-.168-.545.072-.859.6-1.547.414-.543,1.186-1.552,2.478-3.4a4.47,4.47,0,0,0,.7-1.385l.024-.189a1.1,1.1,0,0,0-1.1-1.046,1.1,1.1,0,0,0-1.079.885.99.99,0,0,1-1.162.781.99.99,0,0,1-.781-1.162A3.085,3.085,0,0,1-52.269-93.9,3.083,3.083,0,0,1-49.19-90.82a.989.989,0,0,1-.008.126l-.04.316a.989.989,0,0,1-.018.1,6.263,6.263,0,0,1-1.021,2.117c-.808,1.154-1.417,1.989-1.864,2.589.7,0,1.519-.008,2.3-.018a.99.99,0,0,1,1,.978.99.99,0,0,1-.978,1C-50.994-83.6-51.848-83.593-52.473-83.593Z" transform="translate(55.31 93.9)"/>
          </g>
          <g id="g2057" transform="translate(48.575 12.599)">
            <path id="path2059" d="M-54.349-61.513A3.355,3.355,0,0,1-57.7-64.864v-3.776a3.355,3.355,0,0,1,3.351-3.351A3.355,3.355,0,0,1-51-68.641v3.776A3.355,3.355,0,0,1-54.349-61.513Zm0-8.5a1.373,1.373,0,0,0-1.371,1.371v3.776a1.373,1.373,0,0,0,1.371,1.371,1.373,1.373,0,0,0,1.371-1.371v-3.776A1.373,1.373,0,0,0-54.349-70.012Z" transform="translate(57.7 71.992)"/>
          </g>
          <g id="g2061" transform="translate(19.41 27.407)">
            <path id="path2063" d="M-132.736-5.714a9.39,9.39,0,0,1-9.379-9.379,9.39,9.39,0,0,1,9.379-9.379,9.333,9.333,0,0,1,5.245,1.6.99.99,0,0,1,.266,1.375.99.99,0,0,1-1.375.266,7.36,7.36,0,0,0-4.136-1.263,7.408,7.408,0,0,0-7.4,7.4,7.408,7.408,0,0,0,7.4,7.4,5.741,5.741,0,0,0,3.946-1.415,5.776,5.776,0,0,0,.581-.6.99.99,0,0,1,1.395-.122.99.99,0,0,1,.122,1.395,7.763,7.763,0,0,1-.781.806A7.766,7.766,0,0,1-132.736-5.714Z" transform="translate(142.116 24.472)"/>
          </g>
          <g id="g2065" transform="translate(36.753 34.116)">
            <path id="path2067" d="M-99.659-57.685a5.717,5.717,0,0,1,5.711,5.711,5.717,5.717,0,0,1-5.711,5.711,5.717,5.717,0,0,1-5.711-5.711A5.717,5.717,0,0,1-99.659-57.685Zm0,9.442a3.735,3.735,0,0,0,3.731-3.731,3.735,3.735,0,0,0-3.731-3.731,3.735,3.735,0,0,0-3.731,3.731A3.735,3.735,0,0,0-99.659-48.243Z" transform="translate(105.37 57.685)"/>
          </g>
          <g id="g2069" transform="translate(46.195 33.489)">
            <path id="path2071" d="M-9.01,2.677a.99.99,0,0,1-.99-.99V-9.01A.99.99,0,0,1-9.01-10a.99.99,0,0,1,.99.99v10.7A.99.99,0,0,1-9.01,2.677Z" transform="translate(10 10)"/>
          </g>
        </g>
      </g>
    </g>
  </g>
</svg>
