<svg xmlns="http://www.w3.org/2000/svg" xmlns:xlink="http://www.w3.org/1999/xlink" width="115" height="115" viewBox="0 0 115 115">
  <defs>
    <clipPath id="clip-path">
      <rect id="Rectangle_411044" data-name="Rectangle 411044" width="115" height="115" transform="translate(799.781 1954)" fill="#e8bad8" opacity="0.41"/>
    </clipPath>
  </defs>
  <g id="Group_1207025" data-name="Group 1207025" transform="translate(-748.051 -3034)">
    <g id="Mask_Group_1099374" data-name="Mask Group 1099374" transform="translate(-51.73 1080)" clip-path="url(#clip-path)">
      <g id="Group_1203819" data-name="Group 1203819" transform="translate(799.781 1960.273)">
        <g id="Group_1203817" data-name="Group 1203817">
          <ellipse id="Ellipse_12718" data-name="Ellipse 12718" cx="28.658" cy="28.658" rx="28.658" ry="28.658" transform="translate(56.527 44.289)" fill="#eab687"/>
          <ellipse id="Ellipse_12719" data-name="Ellipse 12719" cx="20.842" cy="20.842" rx="20.842" ry="20.842" fill="#eab687"/>
        </g>
      </g>
    </g>
    <g id="observacion" transform="translate(768.051 3054)">
      <g id="Group_1207023" data-name="Group 1207023" transform="translate(2.174 2.174)">
        <g id="Group_1207005" data-name="Group 1207005" transform="translate(4.696 0)">
          <path id="Path_1251998" data-name="Path 1251998" d="M29.48,9.044H23.61a1.177,1.177,0,0,0-1.174,1.174V13.74H6V11.392A9.39,9.39,0,0,1,15.392,2h7.044A7.05,7.05,0,0,1,29.48,9.044Z" transform="translate(-6 -2)" fill="#fcd770"/>
        </g>
        <g id="Group_1207006" data-name="Group 1207006" transform="translate(21.132 7.044)">
          <path id="Path_1251999" data-name="Path 1251999" d="M34.088,9.174v2.348A1.177,1.177,0,0,1,32.914,12.7H20V9.174A1.177,1.177,0,0,1,21.174,8h11.74A1.177,1.177,0,0,1,34.088,9.174Z" transform="translate(-20 -8)" fill="#ffc729"/>
        </g>
        <g id="Group_1207007" data-name="Group 1207007" transform="translate(4.696 11.74)">
          <path id="Path_1252000" data-name="Path 1252000" d="M15.392,24.914v5.87L13.22,29.692A13.03,13.03,0,0,1,6,18.011V12h9.392v7.044a2.365,2.365,0,0,0-2.348,2.348,2.825,2.825,0,0,0,.834,2.008Z" transform="translate(-6 -12)" fill="#b27946"/>
        </g>
        <g id="Group_1207008" data-name="Group 1207008" transform="translate(14.088 55.954)">
          <path id="Path_1252001" data-name="Path 1252001" d="M16.348,50.059h11.74v3.522a1.177,1.177,0,0,0,1.174,1.174h.881a12.978,12.978,0,0,1-2.477,4.7H15.174A1.177,1.177,0,0,1,14,58.277V49.66a7.094,7.094,0,0,0,2.348.4Z" transform="translate(-14 -49.66)" fill="#ccd1d9"/>
        </g>
        <g id="Group_1207009" data-name="Group 1207009" transform="translate(9.392 35.221)">
          <path id="Path_1252002" data-name="Path 1252002" d="M17.044,35.522V46.088l-4.978,4.978A6.979,6.979,0,0,1,10,46.088V35.522a3.522,3.522,0,0,1,7.044,0Z" transform="translate(-10 -32)" fill="#ccd1d9"/>
        </g>
        <g id="Group_1207010" data-name="Group 1207010" transform="translate(12.914 35.221)">
          <path id="Path_1252003" data-name="Path 1252003" d="M14.174,32h7.044a7.05,7.05,0,0,1,7.044,7.044v4.7L26.607,45.4a2.355,2.355,0,0,1-1.667.693H16.522V35.522A3.527,3.527,0,0,0,13,32Z" transform="translate(-13 -32)" fill="#ccd1d9"/>
        </g>
        <g id="Group_1207011" data-name="Group 1207011" transform="translate(28.176 56.353)">
          <path id="Path_1252004" data-name="Path 1252004" d="M30.7,50v3.522A1.177,1.177,0,0,1,29.522,54.7H27.174A1.177,1.177,0,0,1,26,53.522V50Z" transform="translate(-26 -50)" fill="#cf9e76"/>
        </g>
        <g id="Group_1207012" data-name="Group 1207012" transform="translate(28.176 30.524)">
          <path id="Path_1252005" data-name="Path 1252005" d="M37.74,29.174v2.348A1.177,1.177,0,0,1,36.566,32.7H33.044A2.355,2.355,0,0,0,30.7,35.044v9.392H26V35.044A7.05,7.05,0,0,1,33.044,28h3.522A1.177,1.177,0,0,1,37.74,29.174Z" transform="translate(-26 -28)" fill="#cf9e76"/>
        </g>
        <g id="Group_1207013" data-name="Group 1207013" transform="translate(0 54.005)">
          <path id="Path_1252006" data-name="Path 1252006" d="M2,48a4.7,4.7,0,0,0,4.7,4.7h.07A4.7,4.7,0,0,0,11.392,48Z" transform="translate(-2 -48)" fill="#fc6e51"/>
        </g>
        <g id="Group_1207014" data-name="Group 1207014" transform="translate(0 32.872)">
          <path id="Path_1252007" data-name="Path 1252007" d="M11.392,46.436v4.7H2V34.7a4.7,4.7,0,1,1,9.392,0v11.74Z" transform="translate(-2 -30)" fill="#ff826e"/>
        </g>
        <g id="Group_1207015" data-name="Group 1207015" transform="translate(11.458 46.961)">
          <path id="Path_1252008" data-name="Path 1252008" d="M35.522,44.348v4.7a2.355,2.355,0,0,1-2.348,2.348H16.738a6.976,6.976,0,0,1-4.978-2.066l4.978-4.978h8.418a2.355,2.355,0,0,0,1.667-.693L28.478,42h4.7A2.355,2.355,0,0,1,35.522,44.348Z" transform="translate(-11.76 -42)" fill="#f0d0b4"/>
        </g>
        <g id="Group_1207016" data-name="Group 1207016" transform="translate(18.784 21.132)">
          <path id="Path_1252009" data-name="Path 1252009" d="M27.392,20v5.87a3.517,3.517,0,0,1-3.522,3.522h-4.7A1.177,1.177,0,0,1,18,28.218V20Z" transform="translate(-18 -20)" fill="#e6e9ed"/>
        </g>
        <g id="Group_1207017" data-name="Group 1207017" transform="translate(11.74 11.74)">
          <path id="Path_1252010" data-name="Path 1252010" d="M28.436,21.392l2.348-1.174A36.693,36.693,0,0,0,28.436,12H14.348v7.044A2.365,2.365,0,0,0,12,21.392a2.825,2.825,0,0,0,.834,2.008l1.514,1.514V35.48h7.044v-4.7H20.218a1.177,1.177,0,0,1-1.174-1.174V21.392Z" transform="translate(-12 -12)" fill="#f0d0b4"/>
        </g>
        <g id="Group_1207018" data-name="Group 1207018" transform="translate(61.049 42.265)">
          <path id="Path_1252011" data-name="Path 1252011" d="M63.392,38a6.767,6.767,0,0,1-7.044,7.044H54S54,38,63.392,38Z" transform="translate(-54 -38)" fill="#b4dd7f"/>
        </g>
        <g id="Group_1207019" data-name="Group 1207019" transform="translate(51.657 35.221)">
          <path id="Path_1252012" data-name="Path 1252012" d="M55.392,39.044H53.044A6.767,6.767,0,0,1,46,32C55.392,32,55.392,39.044,55.392,39.044Z" transform="translate(-46 -32)" fill="#b4dd7f"/>
        </g>
        <g id="Group_1207020" data-name="Group 1207020" transform="translate(42.265 51.657)">
          <path id="Path_1252013" data-name="Path 1252013" d="M47.392,53.044H45.044A6.767,6.767,0,0,1,38,46C47.392,46,47.392,53.044,47.392,53.044Z" transform="translate(-38 -46)" fill="#b4dd7f"/>
        </g>
        <g id="Group_1207021" data-name="Group 1207021" transform="translate(51.657 46.961)">
          <path id="Path_1252014" data-name="Path 1252014" d="M55.392,42a6.767,6.767,0,0,1-7.044,7.044H46S46,42,55.392,42Z" transform="translate(-46 -42)" fill="#b4dd7f"/>
        </g>
        <g id="Group_1207022" data-name="Group 1207022" transform="translate(42.265 39.917)">
          <path id="Path_1252015" data-name="Path 1252015" d="M47.392,43.044H45.044A6.767,6.767,0,0,1,38,36a13.5,13.5,0,0,1,4.086.564A7.127,7.127,0,0,1,47.392,43.044Z" transform="translate(-38 -36)" fill="#b4dd7f"/>
        </g>
      </g>
      <g id="Group_1207024" data-name="Group 1207024" transform="translate(1 1)">
        <path id="Path_1252016" data-name="Path 1252016" d="M65.571,52.657a7.957,7.957,0,0,0,8.218-8.218V43.265H72.615c-4.182,0-6.691,1.308-8.218,2.878v-1.7A8.42,8.42,0,0,0,60.57,37.9a3.514,3.514,0,0,0-2.043-6.38h-9.25a1.317,1.317,0,0,1-.931-2.247l5.586-5.586a3.664,3.664,0,0,0-2.591-6.255,3.689,3.689,0,0,0-2.591,1.073l-8.663,8.663,1.66,1.66,8.663-8.663a1.317,1.317,0,0,1,2.247.931,1.306,1.306,0,0,1-.385.931l-5.586,5.586a3.664,3.664,0,0,0,2.591,6.255h9.25a1.174,1.174,0,1,1,0,2.348h-9.25a3.622,3.622,0,0,0-3.48,4.763c-.439-.033-.876-.067-1.358-.067H43.265v1.174a7.957,7.957,0,0,0,8.218,8.218h1.174v5.226c-1.527-1.57-4.036-2.878-8.218-2.878H43.265v1.174a7.957,7.957,0,0,0,8.218,8.218h1.174v4.7h-20.5A14.03,14.03,0,0,0,33.254,64.4h.619a2.35,2.35,0,0,0,2.348-2.348V59.485a3.517,3.517,0,0,0,2.348-3.306v-4.7a3.517,3.517,0,0,0-2.348-3.306V39.743a1.175,1.175,0,0,1,1.174-1.174h3.522a2.35,2.35,0,0,0,2.348-2.348V33.872a2.35,2.35,0,0,0-2.348-2.348H37.395a8.227,8.227,0,0,0-8.155,7.244,8.2,8.2,0,0,0-4.759-2.454V33.872h2.348a4.7,4.7,0,0,0,4.7-4.7V24.032l2.5-1.25L33.85,21.9a52.081,52.081,0,0,0-1.776-6.814h4.147a2.35,2.35,0,0,0,2.348-2.348V10.392a2.35,2.35,0,0,0-2.348-2.348h-4.79A8.224,8.224,0,0,0,23.306,1H16.262A10.578,10.578,0,0,0,5.7,11.566v8.365A14.163,14.163,0,0,0,9.11,29.188,3.518,3.518,0,0,0,5.7,32.7v1.293A5.881,5.881,0,0,0,1,39.743V56.179a5.865,5.865,0,0,0,4.91,5.773,14.168,14.168,0,0,0,24.511,7.142H73.789V66.745H64.4V52.657ZM17.436,66.745V59.607a8.248,8.248,0,0,0,1.174.094H29.176v2.348a2.344,2.344,0,0,0,1.6,2.217,11.741,11.741,0,0,1-1.453,2.48ZM8.044,57.353h2.132a3.519,3.519,0,0,1-2.132,2.132Zm4.7-16.436a2.348,2.348,0,0,1,4.7,0V51l-3.718,3.718a5.833,5.833,0,0,1-.978-3.232ZM31.524,62.049V59.7h2.348v2.348Zm4.7-5.87a1.175,1.175,0,0,1-1.174,1.174H18.61a5.833,5.833,0,0,1-3.232-.978L19.1,52.657H27.03a3.5,3.5,0,0,0,2.49-1.032l1.316-1.316h4.21a1.175,1.175,0,0,1,1.174,1.174Zm-4.7-16.436a5.877,5.877,0,0,1,5.87-5.87h3.522v2.348H37.395a3.526,3.526,0,0,0-3.522,3.522v8.218H31.524Zm-2.348,4.7v4.21L27.86,49.965a1.185,1.185,0,0,1-.83.344H19.784V40.917a4.648,4.648,0,0,0-.653-2.348h4.175a5.877,5.877,0,0,1,5.87,5.87Zm-7.044-8.218h-4.7V26.342L15.574,24.48a1.644,1.644,0,0,1-.486-1.174,1.159,1.159,0,0,1,.977-1.134l3.719,1.86v7.493a2.35,2.35,0,0,0,2.348,2.348Zm7.044-7.044a2.35,2.35,0,0,1-2.348,2.348h-4.7V24.48h7.044Zm2.19-7.691-1.293.647H21.237l-3.8-1.9V15.088H29.573a42.432,42.432,0,0,1,1.793,6.4Zm4.855-8.745H24.48V10.392h11.74ZM16.262,3.348h7.044a5.881,5.881,0,0,1,5.752,4.7H24.48a2.35,2.35,0,0,0-2.348,2.348V12.74H8.044V11.566A8.228,8.228,0,0,1,16.262,3.348ZM8.044,15.088h7.044v4.9a3.529,3.529,0,0,0-2.348,3.321,3.977,3.977,0,0,0,1.174,2.834l1.174,1.174V30.8l-.473-.237A11.822,11.822,0,0,1,8.044,19.931ZM9.218,31.524h2.457a14.367,14.367,0,0,0,1.889,1.138l1.524.762v2.8a4.657,4.657,0,0,0-2.916,1.044,5.88,5.88,0,0,0-4.128-3.273V32.7a1.175,1.175,0,0,1,1.174-1.174Zm-2.348,4.7a3.526,3.526,0,0,1,3.522,3.522V55H3.348V39.743A3.526,3.526,0,0,1,6.87,36.221ZM3.564,57.353H5.7v2.132A3.519,3.519,0,0,1,3.564,57.353ZM19.9,71.441A11.873,11.873,0,0,1,8.268,61.862a5.861,5.861,0,0,0,4.377-4.743A8.243,8.243,0,0,0,15.088,58.9v7.848a2.35,2.35,0,0,0,2.348,2.348h9.519A11.848,11.848,0,0,1,19.9,71.441ZM71.325,45.663a5.528,5.528,0,0,1-5.754,4.646h-.993C65.009,48.724,66.456,46.063,71.325,45.663Zm-9.453-2.4h-1a5.529,5.529,0,0,1-5.755-4.646C60,39.015,61.444,41.659,61.872,43.265Zm-10.389,4.7a5.529,5.529,0,0,1-5.755-4.646c4.882.4,6.326,3.04,6.752,4.646ZM55,49.135a8.391,8.391,0,0,0-5.844-7.5l-.815-.815a1.317,1.317,0,0,1,.931-2.247h3.466a7.875,7.875,0,0,0,8.132,7.044h1.174v2.407c-3.474.224-5.669,1.406-7.044,2.819v-1.7Zm6.928,1.224A5.528,5.528,0,0,1,56.179,55h-.993C55.616,53.42,57.064,50.76,61.933,50.359ZM51.483,59.7a5.529,5.529,0,0,1-5.755-4.646c4.882.4,6.326,3.04,6.752,4.646ZM55,66.745V57.353h1.174a8,8,0,0,0,5.87-2.313v11.7Z" transform="translate(-1 -1)"/>
        <path id="Path_1252017" data-name="Path 1252017" d="M0,0H9.962V2.348H0Z" transform="translate(35.558 22.652) rotate(-45)"/>
        <path id="Path_1252018" data-name="Path 1252018" d="M0,0H9.962V2.348H0Z" transform="translate(54.34 25.002) rotate(-45)"/>
      </g>
    </g>
  </g>
</svg>
