<svg xmlns="http://www.w3.org/2000/svg" xmlns:xlink="http://www.w3.org/1999/xlink" width="115" height="115" viewBox="0 0 115 115">
  <defs>
    <clipPath id="clip-path">
      <rect id="Rectangle_411045" data-name="Rectangle 411045" width="115" height="115" transform="translate(799.781 1954)" fill="#e8bad8" opacity="0.41"/>
    </clipPath>
  </defs>
  <g id="Group_1207030" data-name="Group 1207030" transform="translate(-1163.051 -3034)">
    <g id="Mask_Group_1099375" data-name="Mask Group 1099375" transform="translate(363.27 1080)" clip-path="url(#clip-path)">
      <g id="Group_1203822" data-name="Group 1203822" transform="translate(799.781 1960.273)">
        <g id="Group_1203820" data-name="Group 1203820">
          <ellipse id="Ellipse_12722" data-name="Ellipse 12722" cx="28.658" cy="28.658" rx="28.658" ry="28.658" transform="translate(56.527 44.289)" fill="#eab687"/>
          <ellipse id="Ellipse_12723" data-name="Ellipse 12723" cx="20.842" cy="20.842" rx="20.842" ry="20.842" fill="#eab687"/>
        </g>
      </g>
    </g>
    <g id="aplicacion" transform="translate(1181.051 3052.152)">
      <g id="Group_1207027" data-name="Group 1207027" transform="translate(0 2.398)">
        <path id="Path_1252019" data-name="Path 1252019" d="M0,25.763H16.86l6.2-6.473L38.44,11.061a6.961,6.961,0,0,1-1.769,8.555l-4.03,3.315q0,.134,0,.269H52.265a3.035,3.035,0,1,1,0,6.07h4.384a3.035,3.035,0,0,1,0,6.07h-2.9a3.035,3.035,0,0,1,0,6.07h-4.18a3.035,3.035,0,0,1,0,6.07H28.6a19.864,19.864,0,0,1-11.109-3.4l-.765-.514H0Z" transform="translate(0 -11.061)" fill="#ffceb7"/>
        <path id="Path_1252020" data-name="Path 1252020" d="M77.69,313.413H72.6l-7.438,4.649s-.7,7.09-6.031,7.09c-1.708,0-2.789,1.279-3.194,6.038-.362,4.258-1.119,7.234-11.856,7.234-10.3,0-12.006-3.854-12.006-8.345,0-4.16-3.819-6.554-5.5-6.554-5.934,0-8.136-8.949-8.136-8.949L6.969,308.867H0v30.661H77.69Z" transform="translate(0 -263.678)" fill="#e6cc9f"/>
        <path id="Path_1252021" data-name="Path 1252021" d="M385.117,246.246c2.3,5.29.148,11.332.148,11.332s-5.893-2.535-8.2-7.825-.148-11.332-.148-11.332S382.812,240.956,385.117,246.246Z" transform="translate(-318.949 -203.922)" fill="#8ae897"/>
        <g id="Group_1207026" data-name="Group 1207026" transform="translate(28.984 20.247)">
          <ellipse id="Ellipse_12847" data-name="Ellipse 12847" cx="3.793" cy="6.145" rx="3.793" ry="6.145" transform="translate(0.858 24.504)" fill="#e6cc9f"/>
          <ellipse id="Ellipse_12848" data-name="Ellipse 12848" cx="6.145" cy="3.793" rx="6.145" ry="3.793" transform="translate(0 8.691) rotate(-45)" fill="#e6cc9f"/>
          <ellipse id="Ellipse_12849" data-name="Ellipse 12849" cx="2.81" cy="4.552" rx="2.81" ry="4.552" transform="translate(16.138 36.674)" fill="#e6cc9f"/>
          <ellipse id="Ellipse_12850" data-name="Ellipse 12850" cx="2.81" cy="4.552" rx="2.81" ry="4.552" transform="translate(11.052 14.033)" fill="#e6cc9f"/>
          <path id="Path_1252022" data-name="Path 1252022" d="M208.737,167.118c-1.277-1.277-.737-4.628,1.663-7.028a8.381,8.381,0,0,1,2.924-1.911c-1.448-.94-4.492-.315-6.718,1.911-2.4,2.4-2.94,5.751-1.663,7.028.8.8,2.417.887,4.1.248A1.906,1.906,0,0,1,208.737,167.118Z" transform="translate(-202.261 -155.745)" fill="#dfba7f"/>
          <path id="Path_1252023" data-name="Path 1252023" d="M200.46,312.129a7.581,7.581,0,0,1,1.9-5.2,2.768,2.768,0,0,0-1.9-.95c-1.806,0-3.793,2.751-3.793,6.145s1.988,6.145,3.793,6.145a2.768,2.768,0,0,0,1.9-.95A7.58,7.58,0,0,1,200.46,312.129Z" transform="translate(-195.809 -281.48)" fill="#dfba7f"/>
        </g>
        <rect id="Rectangle_411569" data-name="Rectangle 411569" width="3.793" height="30.661" transform="translate(0 45.189)" fill="#dfba7f"/>
        <path id="Path_1252024" data-name="Path 1252024" d="M380.86,249.752a16.056,16.056,0,0,1-.663-9.37,18.386,18.386,0,0,0-3.278-1.962s-2.157,6.042.148,11.332,8.2,7.825,8.2,7.825a15.9,15.9,0,0,0,.515-1.962A14.989,14.989,0,0,1,380.86,249.752Z" transform="translate(-318.948 -203.921)" fill="#54e072"/>
        <path id="Path_1252025" data-name="Path 1252025" d="M430.328,280.475c-2.081,3.722-.017,8.838-.017,8.838s5.439-.92,7.52-4.643.017-8.838.017-8.838S432.409,276.752,430.328,280.475Z" transform="translate(-364.242 -235.656)" fill="#8ae897"/>
        <path id="Path_1252026" data-name="Path 1252026" d="M434.121,280.475a8.94,8.94,0,0,1,4.095-3.515c-.2-.7-.368-1.127-.368-1.127s-5.439.92-7.52,4.643-.017,8.838-.017,8.838a14.782,14.782,0,0,0,3.426-1.127C433.257,286.469,432.642,283.121,434.121,280.475Z" transform="translate(-364.242 -235.656)" fill="#54e072"/>
        <path id="Path_1252027" data-name="Path 1252027" d="M0,107.951v17.805H3.763l.03-17.805Z" transform="translate(0 -93.249)" fill="#ffaa81"/>
      </g>
      <g id="Group_1207028" data-name="Group 1207028" transform="translate(0 0.849)">
        <path id="Línea_570" data-name="Línea 570" d="M16.253-5.224H0V-7.5H16.253Z" transform="translate(36.013 26.121)"/>
        <path id="Línea_571" data-name="Línea 571" d="M12.729-5.224H0V-7.5H12.729Z" transform="translate(41.02 32.19)"/>
        <path id="Línea_572" data-name="Línea 572" d="M11.128-5.224H0V-7.5H11.128Z" transform="translate(38.441 38.26)"/>
        <path id="Trazado_1252028" data-name="Trazado 1252028" d="M231.283,110.115H226.89v-2.276h4.393a1.9,1.9,0,0,0,0-3.793V101.77h4.18a1.9,1.9,0,0,0,0-3.793V95.7h2.9a1.9,1.9,0,0,0,1.341-3.238,1.88,1.88,0,0,0-1.341-.556h-4.384V89.631a1.9,1.9,0,0,0,0-3.793H214.22V83.561h19.759a4.172,4.172,0,0,1,3.716,6.07h.667a4.173,4.173,0,0,1,.781,8.272,4.176,4.176,0,0,1-3.68,6.143H235a4.176,4.176,0,0,1-3.719,6.07Z" transform="translate(-181.714 -71.01)"/>
        <path id="Trazado_1252029" data-name="Trazado 1252029" d="M40.517,223.977H28.6a20.929,20.929,0,0,1-11.745-3.59l-.475-.32H0v-2.276H17.072l1.053.708A18.662,18.662,0,0,0,28.6,221.7H40.517Z" transform="translate(0 -184.872)"/>
        <path id="Línea_573" data-name="Línea 573" d="M8.6-5.224H0V-7.5H8.6Z" transform="translate(0 22.614)"/>
        <path id="Trazado_1252030" data-name="Trazado 1252030" d="M83.986,24.848V22.572a8.313,8.313,0,0,0,8.3-8.3v-.537l4.445-3.657A5.864,5.864,0,0,0,98.639,4L84.547,11.545l-6.415,6.693H71.66V15.962h5.5l5.994-6.253L99.71.849l.529,1.03a8.145,8.145,0,0,1-2.058,9.954l-3.629,2.986A10.592,10.592,0,0,1,83.986,24.848Z" transform="translate(-60.786 -0.849)"/>
        <path id="Trazado_1252031" data-name="Trazado 1252031" d="M44.079,333.2c-9.09,0-13.144-2.924-13.144-9.482,0-3.5-3.275-5.417-4.361-5.417-5.921,0-8.489-7.246-9.1-9.295L6.7,303.647H0v-2.276H7.237l12.179,6.06.127.512c.02.081,2.064,8.085,7.031,8.085,2.34,0,6.637,2.921,6.637,7.693,0,3.486.84,7.206,10.868,7.206,8.726,0,9.932-1.984,10.419-4.016l2.213.531C55.717,331.587,52.175,333.2,44.079,333.2Z" transform="translate(0 -255.77)"/>
        <path id="Trazado_1252032" data-name="Trazado 1252032" d="M363.382,374.58l-2.276-.1.006-.072c.3-3.518,1.047-7.1,4.33-7.1,4.23,0,4.874-5.819,4.9-6.066l.057-.553,1.247-.783,1.208,1.929-.32.2c-.454,2.9-2.379,7.55-7.091,7.55C364.912,369.583,363.807,369.583,363.382,374.58Z" transform="translate(-306.313 -305.422)"/>
        <path id="Línea_574" data-name="Línea 574" d="M4.484-5.224H0V-7.5H4.484Z" transform="translate(73.206 57.646)"/>
        <path id="Línea_575" data-name="Línea 575" d="M13.6-5.224H0V-7.5H13.6Z" transform="translate(12.975 67.758)"/>
        <path id="Línea_576" data-name="Línea 576" d="M15.678-5.224H0V-7.5H15.678Z" transform="translate(59.13 69.385)"/>
        <path id="Línea_577" data-name="Línea 577" d="M8.833-5.224H0V-7.5H8.833Z" transform="translate(65.161 62.295)"/>
        <path id="Línea_578" data-name="Línea 578" d="M15.226-5.224H0V-7.5H15.226Z" transform="translate(3.212 58.808)"/>
        <path id="Elipse_12851" data-name="Elipse 12851" d="M-2.568-7.5C.2-7.5,2.363-4.3,2.363-.217S.2,7.067-2.568,7.067-7.5,3.868-7.5-.217-5.334-7.5-2.568-7.5Zm0,12.291C-1.312,4.791.087,2.734.087-.217s-1.4-5.007-2.655-5.007S-5.224-3.167-5.224-.217-3.824,4.791-2.568,4.791Z" transform="translate(36.204 52.663)"/>
        <path id="Trazado_1252033" data-name="Trazado 1252033" d="M378.086,249.938c-1.442-.7-6.312-3.362-8.445-8.255-2.455-5.638-.27-11.905-.176-12.169l.408-1.142,1.114.479c.257.111,6.334,2.778,8.79,8.416a13.055,13.055,0,0,1,.605,1.709l-2.192.612a10.773,10.773,0,0,0-.5-1.41,15.283,15.283,0,0,0-6.433-6.63c-.454,1.946-1.022,5.8.47,9.227,1.867,4.284,6.451,6.679,7.351,7.116Z" transform="translate(-312.567 -193.848)"/>
        <path id="Trazado_1252034" data-name="Trazado 1252034" d="M432.2,267.431l.343.849c.093.229,2.242,5.669-.079,9.819s-8.08,5.168-8.324,5.209l-.9.153-.343-.849c-.093-.23-2.242-5.669.079-9.819s8.08-5.168,8.324-5.209Zm-7.5,13.408c1.52-.426,4.473-1.521,5.776-3.851s.69-5.416.256-6.935c-1.521.426-4.472,1.522-5.773,3.85S424.266,279.324,424.7,280.839Z" transform="translate(-357.882 -226.98)"/>
        <path id="Elipse_12852" data-name="Elipse 12852" d="M7.283,0c4.084,0,7.283,2.166,7.283,4.932s-3.2,4.932-7.283,4.932S0,7.7,0,4.932,3.2,0,7.283,0Zm0,7.587c2.951,0,5.007-1.4,5.007-2.655S10.234,2.276,7.283,2.276s-5.007,1.4-5.007,2.655S4.333,7.587,7.283,7.587Z" transform="translate(27.375 30.488) rotate(-45)"/>
        <path id="Elipse_12853" data-name="Elipse 12853" d="M-3.552-7.5C-1.338-7.5.4-5,.4-1.81S-1.338,3.88-3.552,3.88-7.5,1.381-7.5-1.81-5.766-7.5-3.552-7.5Zm0,9.1C-2.779,1.6-1.88.113-1.88-1.81s-.9-3.414-1.672-3.414S-5.224-3.733-5.224-1.81-4.325,1.6-3.552,1.6Z" transform="translate(51.485 64.833)"/>
        <path id="Elipse_12854" data-name="Elipse 12854" d="M-3.552-7.5C-1.338-7.5.4-5,.4-1.81S-1.338,3.88-3.552,3.88-7.5,1.381-7.5-1.81-5.766-7.5-3.552-7.5Zm0,9.1C-2.779,1.6-1.88.113-1.88-1.81s-.9-3.414-1.672-3.414S-5.224-3.733-5.224-1.81-4.325,1.6-3.552,1.6Z" transform="translate(46.398 42.192)"/>
      </g>
      <g id="Group_1207029" data-name="Group 1207029" transform="translate(16.845 69.242)">
        <path id="Línea_579" data-name="Línea 579" d="M2.276-5.224H0V-7.5H2.276Z" transform="translate(0 7.5)" fill="#fff"/>
        <path id="Línea_580" data-name="Línea 580" d="M2.276-5.224H0V-7.5H2.276Z" transform="translate(4.552 7.5)" fill="#fff"/>
      </g>
    </g>
  </g>
</svg>
