<svg xmlns="http://www.w3.org/2000/svg" width="113.842" height="101.604" viewBox="0 0 113.842 101.604">
  <g id="Group_1207004" data-name="Group 1207004" transform="translate(-323.051 -3041)">
    <g id="Group_1207001" data-name="Group 1207001" transform="translate(-476.73 1080.728)">
      <g id="Group_1203816" data-name="Group 1203816" transform="translate(799.781 1960.273)">
        <g id="Group_1203814" data-name="Group 1203814">
          <ellipse id="Ellipse_12714" data-name="Ellipse 12714" cx="28.658" cy="28.658" rx="28.658" ry="28.658" transform="translate(56.527 44.289)" fill="#eab687"/>
          <ellipse id="Ellipse_12715" data-name="Ellipse 12715" cx="20.842" cy="20.842" rx="20.842" ry="20.842" fill="#eab687"/>
        </g>
      </g>
    </g>
    <g id="riego" transform="translate(343.051 3017.358)">
      <g id="Group_1207002" data-name="Group 1207002" transform="translate(1.078 70.531)">
        <rect id="Rectangle_411567" data-name="Rectangle 411567" width="6.986" height="16.647" transform="translate(32.222 6.514)" fill="#bad6e5"/>
        <rect id="Rectangle_411568" data-name="Rectangle 411568" width="3.593" height="16.646" transform="translate(32.221 6.514)" fill="#8abbd5"/>
        <path id="Path_1251988" data-name="Path 1251988" d="M214.575,388.423H197.864l1.035-8.332a1.725,1.725,0,0,1,1.712-1.512h11.219a1.725,1.725,0,0,1,1.712,1.512Z" transform="translate(-170.504 -357.33)" fill="#e5eef9"/>
        <path id="Path_1251989" data-name="Path 1251989" d="M204.2,378.576a1.725,1.725,0,0,0-1.712,1.512l-1.035,8.333H197.86l1.035-8.333a1.725,1.725,0,0,1,1.712-1.512Z" transform="translate(-170.501 -357.327)" fill="#d5e3f4"/>
        <path id="Path_1251990" data-name="Path 1251990" d="M77.78,430.986H8.65a1.15,1.15,0,0,1-1.15-1.15v-2.731a1.15,1.15,0,0,1,1.15-1.15H77.78a1.15,1.15,0,0,1,1.15,1.15v2.731A1.15,1.15,0,0,1,77.78,430.986Z" transform="translate(-7.5 -397.898)" fill="#bbec6c"/>
        <path id="Path_1251991" data-name="Path 1251991" d="M12.243,430.986H8.65a1.15,1.15,0,0,1-1.15-1.15v-2.731a1.149,1.149,0,0,1,1.15-1.15h3.593a1.149,1.149,0,0,0-1.15,1.15v2.731A1.15,1.15,0,0,0,12.243,430.986Z" transform="translate(-7.5 -397.898)" fill="#a2e62e"/>
        <path id="Path_1251992" data-name="Path 1251992" d="M82.575,286.9H80.152a5.326,5.326,0,0,0-5.326,5.326v2.423h2.423a5.326,5.326,0,0,0,5.326-5.326Z" transform="translate(-65.15 -278.83)" fill="#bbec6c"/>
        <path id="Path_1251993" data-name="Path 1251993" d="M20.91,322.247v2.423A5.326,5.326,0,0,0,26.236,330h2.423v-2.423a5.326,5.326,0,0,0-5.326-5.326Z" transform="translate(-18.983 -309.094)" fill="#bbec6c"/>
        <path id="Path_1251994" data-name="Path 1251994" d="M444.923,286.9H442.5a5.326,5.326,0,0,0-5.326,5.326v2.423H439.6a5.326,5.326,0,0,0,5.326-5.326Z" transform="translate(-375.42 -278.83)" fill="#bbec6c"/>
        <path id="Path_1251995" data-name="Path 1251995" d="M383.258,322.247v2.423A5.326,5.326,0,0,0,388.584,330h2.423v-2.423a5.326,5.326,0,0,0-5.326-5.326Z" transform="translate(-329.253 -309.094)" fill="#bbec6c"/>
        <path id="Path_1251996" data-name="Path 1251996" d="M213.332,238.805h-9.118a1.15,1.15,0,0,1-1.073-.738l-2.217-5.773A1.15,1.15,0,0,1,202,230.732h13.552a1.15,1.15,0,0,1,1.073,1.562l-2.217,5.773A1.15,1.15,0,0,1,213.332,238.805Z" transform="translate(-173.058 -230.732)" fill="#e5eef9"/>
        <path id="Path_1251997" data-name="Path 1251997" d="M207.8,238.808H204.21a1.151,1.151,0,0,1-1.074-.737l-2.218-5.773a1.15,1.15,0,0,1,1.074-1.562h3.593a1.15,1.15,0,0,0-1.074,1.562l2.218,5.773A1.151,1.151,0,0,0,207.8,238.808Z" transform="translate(-173.054 -230.735)" fill="#d5e3f4"/>
      </g>
      <g id="Group_1207003" data-name="Group 1207003" transform="translate(0 43.642)">
        <path id="Línea_570" data-name="Línea 570" d="M-6.422,7.831A1.078,1.078,0,0,1-7.5,6.753V-6.422A1.078,1.078,0,0,1-6.422-7.5,1.078,1.078,0,0,1-5.344-6.422V6.753A1.078,1.078,0,0,1-6.422,7.831Z" transform="translate(46.709 41.385)"/>
        <path id="Línea_571" data-name="Línea 571" d="M-6.422-2.2A1.078,1.078,0,0,1-7.5-3.282v-3.14A1.078,1.078,0,0,1-6.422-7.5,1.078,1.078,0,0,1-5.344-6.422v3.14A1.078,1.078,0,0,1-6.422-2.2Z" transform="translate(39.721 41.385)"/>
        <path id="Línea_572" data-name="Línea 572" d="M-6.422-.34A1.078,1.078,0,0,1-7.5-1.418v-5A1.078,1.078,0,0,1-6.422-7.5,1.078,1.078,0,0,1-5.344-6.422v5A1.078,1.078,0,0,1-6.422-.34Z" transform="translate(39.721 49.555)"/>
        <path id="Trazado_1251998" data-name="Trazado 1251998" d="M194.059,380.042a1.093,1.093,0,0,1-.134-.008,1.078,1.078,0,0,1-.937-1.2l.658-5.3a2.808,2.808,0,0,1,2.781-2.457h11.219a2.807,2.807,0,0,1,2.781,2.456l.658,5.3a1.078,1.078,0,1,1-2.139.266l-.658-5.3a.648.648,0,0,0-.642-.567H196.427a.648.648,0,0,0-.642.568l-.658,5.3A1.078,1.078,0,0,1,194.059,380.042Z" transform="translate(-165.244 -324.016)"/>
        <path id="Trazado_1251999" data-name="Trazado 1251999" d="M71.358,425.642H66.83a1.078,1.078,0,1,1,0-2.156h4.529l.072-2.8-69.2-.072-.072,2.8,59.643.072a1.078,1.078,0,1,1,0,2.156H2.228A2.23,2.23,0,0,1,0,423.414v-2.731a2.23,2.23,0,0,1,2.228-2.228H71.358a2.23,2.23,0,0,1,2.228,2.228v2.731A2.23,2.23,0,0,1,71.358,425.642Z" transform="translate(0 -364.587)"/>
        <path id="Línea_573" data-name="Línea 573" d="M-6.422,6.892A1.078,1.078,0,0,1-7.5,5.814V-6.422A1.078,1.078,0,0,1-6.422-7.5,1.078,1.078,0,0,1-5.344-6.422V5.814A1.078,1.078,0,0,1-6.422,6.892Z" transform="translate(17.176 49.133)"/>
        <path id="Trazado_1252000" data-name="Trazado 1252000" d="M73.73,279.4h2.423a1.078,1.078,0,0,1,1.078,1.078V282.9a6.412,6.412,0,0,1-6.4,6.4H68.4a1.078,1.078,0,0,1-1.078-1.078v-2.423A6.412,6.412,0,0,1,73.73,279.4Zm1.345,2.156H73.73a4.253,4.253,0,0,0-4.248,4.248v1.345h1.345a4.253,4.253,0,0,0,4.248-4.248Z" transform="translate(-57.65 -245.519)"/>
        <path id="Trazado_1252001" data-name="Trazado 1252001" d="M14.488,314.747h2.423a6.412,6.412,0,0,1,6.4,6.4v2.423a1.078,1.078,0,0,1-1.078,1.078H19.814a6.412,6.412,0,0,1-6.4-6.4v-2.423A1.078,1.078,0,0,1,14.488,314.747Zm6.671,7.749v-1.345a4.253,4.253,0,0,0-4.248-4.248H15.566v1.345a4.253,4.253,0,0,0,4.248,4.248Z" transform="translate(-11.483 -275.783)"/>
        <path id="Línea_574" data-name="Línea 574" d="M-6.422,6.892A1.078,1.078,0,0,1-7.5,5.814V-6.422A1.078,1.078,0,0,1-6.422-7.5,1.078,1.078,0,0,1-5.344-6.422V5.814A1.078,1.078,0,0,1-6.422,6.892Z" transform="translate(69.254 49.133)"/>
        <path id="Trazado_1252002" data-name="Trazado 1252002" d="M436.078,279.4H438.5a1.078,1.078,0,0,1,1.078,1.078V282.9a6.412,6.412,0,0,1-6.4,6.4h-2.423a1.078,1.078,0,0,1-1.078-1.078v-2.423A6.411,6.411,0,0,1,436.078,279.4Zm1.345,2.156h-1.345a4.253,4.253,0,0,0-4.248,4.248v1.345h1.345a4.253,4.253,0,0,0,4.248-4.248Z" transform="translate(-367.92 -245.519)"/>
        <path id="Trazado_1252003" data-name="Trazado 1252003" d="M376.836,314.747h2.423a6.412,6.412,0,0,1,6.4,6.4v2.423a1.078,1.078,0,0,1-1.078,1.078h-2.423a6.412,6.412,0,0,1-6.4-6.4v-2.423A1.078,1.078,0,0,1,376.836,314.747Zm6.671,7.749v-1.345a4.253,4.253,0,0,0-4.248-4.248h-1.345v1.345a4.253,4.253,0,0,0,4.248,4.248Z" transform="translate(-321.753 -275.783)"/>
        <path id="Trazado_1252004" data-name="Trazado 1252004" d="M206.915,233.461H197.8a2.241,2.241,0,0,1-2.08-1.429l-2.217-5.773a2.228,2.228,0,0,1,2.08-3.026h13.552a2.228,2.228,0,0,1,2.08,3.026l-2.217,5.773A2.241,2.241,0,0,1,206.915,233.461Zm-11.335-8.073,2.15,5.871,9.185.046a.071.071,0,0,0,.067-.046l2.217-5.774Z" transform="translate(-165.564 -197.421)"/>
        <path id="Trazado_1252005" data-name="Trazado 1252005" d="M278.915,58.135a1.078,1.078,0,0,1-.859-1.728q.54-.715,1.093-1.39a1.078,1.078,0,1,1,1.667,1.367q-.526.642-1.04,1.322A1.076,1.076,0,0,1,278.915,58.135Zm3.979-4.533a1.078,1.078,0,0,1-.751-1.852q.647-.628,1.31-1.206a1.078,1.078,0,1,1,1.418,1.624q-.621.542-1.227,1.13A1.074,1.074,0,0,1,282.893,53.6Zm4.708-3.764a1.078,1.078,0,0,1-.584-1.985q.761-.489,1.539-.921a1.078,1.078,0,0,1,1.047,1.885q-.718.4-1.42.85A1.073,1.073,0,0,1,287.6,49.838Zm5.407-2.65a1.078,1.078,0,0,1-.355-2.1q.85-.3,1.719-.533a1.078,1.078,0,1,1,.566,2.08q-.8.217-1.575.489A1.076,1.076,0,0,1,293.008,47.188Zm13.617-.967a1.086,1.086,0,0,1-.178-.015q-.833-.138-1.652-.231a1.078,1.078,0,1,1,.243-2.142q.873.1,1.762.247a1.078,1.078,0,0,1-.175,2.141Zm-7.735-.314a1.078,1.078,0,0,1-.1-2.151q.886-.085,1.79-.114a1.078,1.078,0,0,1,.068,2.155q-.834.026-1.652.1Q298.942,45.907,298.89,45.907Z" transform="translate(-237.906 -43.642)"/>
        <path id="Trazado_1252006" data-name="Trazado 1252006" d="M281.173,146.678a1.078,1.078,0,0,1-.588-1.982q.752-.488,1.5-.933a1.078,1.078,0,1,1,1.1,1.854q-.714.424-1.429.888A1.073,1.073,0,0,1,281.173,146.678Zm30.109-1.737a1.073,1.073,0,0,1-.528-.139q-.736-.415-1.474-.782a1.078,1.078,0,1,1,.96-1.93q.787.392,1.572.834a1.078,1.078,0,0,1-.53,2.017Zm-24.822-1.166a1.078,1.078,0,0,1-.442-2.062q.822-.369,1.643-.687a1.078,1.078,0,0,1,.779,2.01q-.768.3-1.539.643A1.074,1.074,0,0,1,286.46,143.775Zm19.318-1.284a1.077,1.077,0,0,1-.336-.054q-.793-.26-1.588-.466a1.078,1.078,0,1,1,.539-2.087q.861.223,1.721.5a1.078,1.078,0,0,1-.336,2.1Zm-13.611-.646a1.078,1.078,0,0,1-.237-2.129q.882-.2,1.761-.34a1.078,1.078,0,1,1,.34,2.129q-.811.13-1.624.314A1.081,1.081,0,0,1,292.167,141.845Zm7.712-.562c-.03,0-.06,0-.09,0q-.822-.068-1.647-.079a1.078,1.078,0,0,1,.027-2.156q.9.011,1.8.086a1.078,1.078,0,0,1-.088,2.152Z" transform="translate(-239.838 -125.333)"/>
        <path id="Trazado_1252007" data-name="Trazado 1252007" d="M55.159,58.135a1.076,1.076,0,0,1-.861-.428q-.514-.68-1.04-1.322a1.078,1.078,0,0,1,1.667-1.367q.553.675,1.093,1.39a1.078,1.078,0,0,1-.859,1.728ZM51.18,53.6a1.074,1.074,0,0,1-.75-.3q-.606-.588-1.227-1.13a1.078,1.078,0,1,1,1.418-1.624q.663.579,1.31,1.206A1.078,1.078,0,0,1,51.18,53.6Zm-4.708-3.764a1.073,1.073,0,0,1-.582-.171q-.7-.451-1.42-.85a1.078,1.078,0,0,1,1.047-1.885q.779.432,1.539.921a1.078,1.078,0,0,1-.584,1.985Zm-5.407-2.65a1.076,1.076,0,0,1-.355-.06q-.779-.272-1.575-.489a1.078,1.078,0,0,1,.566-2.08q.869.237,1.719.533a1.078,1.078,0,0,1-.355,2.1Zm-13.617-.967a1.078,1.078,0,0,1-.175-2.141q.889-.147,1.762-.247a1.078,1.078,0,0,1,.243,2.142q-.819.093-1.652.231A1.086,1.086,0,0,1,27.448,46.221Zm7.735-.314q-.052,0-.1-.005-.818-.078-1.652-.1a1.078,1.078,0,0,1,.068-2.155q.9.029,1.79.114a1.078,1.078,0,0,1-.1,2.151Z" transform="translate(-22.581 -43.642)"/>
        <path id="Trazado_1252008" data-name="Trazado 1252008" d="M38.584,146.678A1.073,1.073,0,0,1,38,146.5q-.715-.464-1.429-.888a1.078,1.078,0,1,1,1.1-1.854q.75.445,1.5.933a1.078,1.078,0,0,1-.588,1.982ZM8.475,144.941a1.078,1.078,0,0,1-.53-2.017q.785-.442,1.572-.834a1.078,1.078,0,1,1,.96,1.93q-.738.367-1.474.782A1.073,1.073,0,0,1,8.475,144.941ZM33.3,143.775a1.074,1.074,0,0,1-.441-.095q-.77-.346-1.539-.643a1.078,1.078,0,1,1,.779-2.01q.82.318,1.643.687a1.078,1.078,0,0,1-.442,2.062Zm-19.318-1.284a1.078,1.078,0,0,1-.336-2.1q.859-.282,1.721-.5a1.078,1.078,0,0,1,.539,2.087q-.8.205-1.588.466A1.077,1.077,0,0,1,13.979,142.491Zm13.611-.646a1.081,1.081,0,0,1-.239-.027q-.813-.184-1.624-.314a1.078,1.078,0,0,1,.34-2.129q.879.14,1.761.34a1.078,1.078,0,0,1-.237,2.129Zm-7.712-.562a1.078,1.078,0,0,1-.088-2.152q.9-.074,1.8-.086a1.078,1.078,0,0,1,.027,2.156q-.825.01-1.647.079Q19.923,141.283,19.878,141.283Z" transform="translate(-6.333 -125.333)"/>
      </g>
    </g>
  </g>
</svg>
