<svg xmlns="http://www.w3.org/2000/svg" xmlns:xlink="http://www.w3.org/1999/xlink" width="115" height="115" viewBox="0 0 115 115">
  <defs>
    <clipPath id="clip-path">
      <rect id="Rectangle_411483" data-name="Rectangle 411483" width="115" height="115" transform="translate(800.781 1954)" fill="#e8bad8" opacity="0.41"/>
    </clipPath>
    <clipPath id="clip-path-2">
      <path id="path3099" d="M0-682.665H69.968V-612.7H0Z" transform="translate(0 682.665)"/>
    </clipPath>
  </defs>
  <g id="Group_1207065" data-name="Group 1207065" transform="translate(6794 263)">
    <g id="Mask_Group_1099686" data-name="Mask Group 1099686" transform="translate(-7594.781 -2217)" clip-path="url(#clip-path)">
      <g id="Group_1206944" data-name="Group 1206944" transform="translate(799.781 1960.273)">
        <g id="Group_1206943" data-name="Group 1206943">
          <ellipse id="Ellipse_12827" data-name="Ellipse 12827" cx="28.658" cy="28.658" rx="28.658" ry="28.658" transform="translate(56.527 44.289)" fill="#7fe5cf"/>
          <ellipse id="Ellipse_12828" data-name="Ellipse 12828" cx="20.842" cy="20.842" rx="20.842" ry="20.842" fill="#7fe5cf"/>
        </g>
      </g>
    </g>
    <g id="g3093" transform="translate(-6771 442.665)">
      <g id="g3095" transform="translate(0 -682.665)">
        <g id="g3097" clip-path="url(#clip-path-2)">
          <g id="g3103" transform="translate(1.025 1.025)">
            <path id="path3105" d="M-528.93-594.747h-52.886a7.516,7.516,0,0,1-7.516-7.516v-52.886a7.516,7.516,0,0,1,7.516-7.516h52.886a7.516,7.516,0,0,1,7.516,7.516v52.886a7.516,7.516,0,0,1-7.516,7.516" transform="translate(589.332 662.665)" fill="#01d0fb"/>
          </g>
          <g id="g3107" transform="translate(1.074 1.074)">
            <path id="path3109" d="M-535.911,0V12.034A49.165,49.165,0,0,1-585.077,61.2H-597.11a7.516,7.516,0,0,0,7.467,6.67h52.886a7.516,7.516,0,0,0,7.516-7.516V7.467A7.516,7.516,0,0,0-535.911,0" transform="translate(597.11)" fill="#08a9f1"/>
          </g>
          <g id="g3111" transform="translate(7.695 7.695)">
            <path id="path3113" d="M-473.139-459.976l-1.5,1.5-47.116.547h-3.362a2.05,2.05,0,0,1-2.05-2.05v-50.478a2.05,2.05,0,0,1,2.05-2.05h50.478a2.05,2.05,0,0,1,2.05,2.05v3.362Z" transform="translate(527.169 512.504)" fill="#99e6fc"/>
          </g>
          <g id="g3115" transform="translate(13.107 13.107)">
            <path id="path3117" d="M0-430.535H47.116a2.05,2.05,0,0,0,2.05-2.05V-479.7A49.165,49.165,0,0,1,0-430.535" transform="translate(0 479.7)" fill="#62dbfb"/>
          </g>
          <g id="g3119" transform="translate(0 0)">
            <path id="path3121" d="M51.427-213.845H-1.459A8.551,8.551,0,0,1-10-222.386v-28.239a1.025,1.025,0,0,1,1.025-1.025,1.025,1.025,0,0,1,1.025,1.025v28.239a6.5,6.5,0,0,0,6.491,6.491H51.427a6.5,6.5,0,0,0,6.491-6.491v-52.886a6.5,6.5,0,0,0-6.491-6.491H-1.459a6.5,6.5,0,0,0-6.491,6.491v20.548A1.025,1.025,0,0,1-8.975-253.7,1.025,1.025,0,0,1-10-254.724v-20.548a8.551,8.551,0,0,1,8.541-8.541H51.427a8.551,8.551,0,0,1,8.541,8.541v52.886A8.551,8.551,0,0,1,51.427-213.845Z" transform="translate(10 283.813)"/>
          </g>
          <g id="g3123" transform="translate(6.67 6.67)">
            <path id="path3125" d="M-488.951-386.942h-50.478a3.078,3.078,0,0,1-3.075-3.075v-50.478a3.078,3.078,0,0,1,3.075-3.075h50.478a3.078,3.078,0,0,1,3.075,3.075v38.288a1.025,1.025,0,0,1-1.025,1.025,1.025,1.025,0,0,1-1.025-1.025v-38.288a1.026,1.026,0,0,0-1.025-1.025h-50.478a1.026,1.026,0,0,0-1.025,1.025v50.478a1.026,1.026,0,0,0,1.025,1.025h50.478a1.026,1.026,0,0,0,1.025-1.025v-8.09a1.025,1.025,0,0,1,1.025-1.025,1.025,1.025,0,0,1,1.025,1.025v8.09A3.078,3.078,0,0,1-488.951-386.942Z" transform="translate(542.504 443.57)"/>
          </g>
          <g id="g3127" transform="translate(14.857 14.889)">
            <path id="path3129" d="M-.043-7.95H-8.975A1.025,1.025,0,0,1-10-8.975,1.025,1.025,0,0,1-8.975-10H-.043A1.025,1.025,0,0,1,.982-8.975,1.025,1.025,0,0,1-.043-7.95Z" transform="translate(10 10)"/>
          </g>
          <g id="g3131" transform="translate(14.857 53.029)">
            <path id="path3133" d="M-6.241-7.95H-8.975A1.025,1.025,0,0,1-10-8.975,1.025,1.025,0,0,1-8.975-10h2.734A1.025,1.025,0,0,1-5.216-8.975,1.025,1.025,0,0,1-6.241-7.95Z" transform="translate(10 10)"/>
          </g>
          <g id="g3135" transform="translate(14.857 19.857)">
            <path id="path3137" d="M-6.241-7.95H-8.975A1.025,1.025,0,0,1-10-8.975,1.025,1.025,0,0,1-8.975-10h2.734A1.025,1.025,0,0,1-5.216-8.975,1.025,1.025,0,0,1-6.241-7.95Z" transform="translate(10 10)"/>
          </g>
          <g id="g3139" transform="translate(22.03 28.374)">
            <path id="path3141" d="M-.863,9.42H-12.451a1.025,1.025,0,0,1-.9-.537,1.025,1.025,0,0,1,.042-1.048L-3.024-7.95h-9.07A1.025,1.025,0,0,1-13.12-8.975,1.025,1.025,0,0,1-12.095-10H-1.133a1.025,1.025,0,0,1,.9.537A1.025,1.025,0,0,1-.274-8.416L-10.56,7.37h9.7A1.025,1.025,0,0,1,.162,8.395,1.025,1.025,0,0,1-.863,9.42Z" transform="translate(13.476 10)"/>
          </g>
          <g id="g3143" transform="translate(38.226 34.756)">
            <path id="path3145" d="M-8.975,3.037A1.025,1.025,0,0,1-10,2.012V-8.975A1.025,1.025,0,0,1-8.975-10,1.025,1.025,0,0,1-7.95-8.975V2.012A1.025,1.025,0,0,1-8.975,3.037Z" transform="translate(10 10)"/>
          </g>
          <g id="g3147" transform="translate(38.226 34.862)">
            <path id="path3149" d="M-1.318-51.549a1.025,1.025,0,0,1-1.025-1.025v-5.441c.05-1.807-.266-3.1-.913-3.764a2.163,2.163,0,0,0-1.639-.6c-1.855,0-3.054,1.787-3.054,4.554A1.025,1.025,0,0,1-8.975-56.8,1.025,1.025,0,0,1-10-57.824c0-4.562,2.563-6.6,5.1-6.6a4.159,4.159,0,0,1,3.109,1.22C-.73-62.122-.228-60.365-.294-57.987v5.413A1.025,1.025,0,0,1-1.318-51.549Z" transform="translate(10 64.428)"/>
          </g>
          <g id="g3151" transform="translate(41.787 13.206)">
            <path id="path3153" d="M-6.854-20.637a1.025,1.025,0,0,1-1.025-1.025,1.025,1.025,0,0,1,1.025-1.025,1.139,1.139,0,0,0,1.138-1.138,1.139,1.139,0,0,0-1.138-1.138,1.139,1.139,0,0,0-1.117.916,1.025,1.025,0,0,1-1.2.808,1.025,1.025,0,0,1-.808-1.2,3.193,3.193,0,0,1,3.128-2.571,3.192,3.192,0,0,1,3.188,3.188A3.192,3.192,0,0,1-6.854-20.637Z" transform="translate(10.002 27.013)"/>
          </g>
          <g id="g3155" transform="translate(41.747 17.532)">
            <path id="path3157" d="M-27.916-3.624a3.2,3.2,0,0,1-3.157-2.745,3.2,3.2,0,0,1-.031-.443,1.025,1.025,0,0,1,1.025-1.025,1.025,1.025,0,0,1,1.025,1.025,1.153,1.153,0,0,0,.011.16,1.142,1.142,0,0,0,1.127.978,1.139,1.139,0,0,0,1.138-1.138A1.139,1.139,0,0,0-27.916-7.95a1.025,1.025,0,0,1-1.025-1.025A1.025,1.025,0,0,1-27.916-10a3.192,3.192,0,0,1,3.188,3.188A3.192,3.192,0,0,1-27.916-3.624Z" transform="translate(31.104 10)"/>
          </g>
          <g id="g3159" transform="translate(50.288 13.133)">
            <path id="path3161" d="M-54.23-61.144A3.473,3.473,0,0,1-57.7-64.613v-3.909a3.473,3.473,0,0,1,3.469-3.469,3.473,3.473,0,0,1,3.469,3.469v3.909A3.473,3.473,0,0,1-54.23-61.144Zm0-8.8a1.421,1.421,0,0,0-1.42,1.419v3.909a1.421,1.421,0,0,0,1.42,1.42,1.421,1.421,0,0,0,1.419-1.42v-3.909A1.421,1.421,0,0,0-54.23-69.942Z" transform="translate(57.7 71.992)"/>
          </g>
        </g>
      </g>
    </g>
  </g>
</svg>
