<svg xmlns="http://www.w3.org/2000/svg" xmlns:xlink="http://www.w3.org/1999/xlink" width="115" height="115" viewBox="0 0 115 115">
  <defs>
    <clipPath id="clip-path">
      <rect id="Rectangle_411471" data-name="Rectangle 411471" width="115" height="115" transform="translate(800.781 1954)" fill="#e8bad8" opacity="0.41"/>
    </clipPath>
    <clipPath id="clip-path-2">
      <path id="path1581" d="M0-682.665H66.513v66.513H0Z" transform="translate(0 682.665)"/>
    </clipPath>
  </defs>
  <g id="Group_1207058" data-name="Group 1207058" transform="translate(6128 1001)">
    <g id="Mask_Group_1099680" data-name="Mask Group 1099680" transform="translate(-6928.781 -2955)" clip-path="url(#clip-path)">
      <g id="Group_1206932" data-name="Group 1206932" transform="translate(799.781 1960.273)">
        <g id="Group_1206931" data-name="Group 1206931">
          <ellipse id="Ellipse_12815" data-name="Ellipse 12815" cx="28.658" cy="28.658" rx="28.658" ry="28.658" transform="translate(56.527 44.289)" fill="#7fe5cf"/>
          <ellipse id="Ellipse_12816" data-name="Ellipse 12816" cx="20.842" cy="20.842" rx="20.842" ry="20.842" fill="#7fe5cf"/>
        </g>
      </g>
    </g>
    <g id="g1575" transform="translate(-6104 -294.335)">
      <g id="g1577" transform="translate(0 -682.665)">
        <g id="g1579" clip-path="url(#clip-path-2)">
          <g id="g1585" transform="translate(0.974 0.974)">
            <path id="path1587" d="M-531.913-598.1h-50.274a7.145,7.145,0,0,1-7.145-7.145V-655.52a7.145,7.145,0,0,1,7.145-7.145h50.274a7.145,7.145,0,0,1,7.145,7.145v50.274a7.145,7.145,0,0,1-7.145,7.145" transform="translate(589.332 662.665)" fill="#fe9738"/>
          </g>
          <g id="g1589" transform="translate(1.021 1.021)">
            <path id="path1591" d="M-538.933,0V11.439a46.738,46.738,0,0,1-46.738,46.738H-597.11a7.145,7.145,0,0,0,7.1,6.341h50.274a7.145,7.145,0,0,0,7.145-7.145V7.1A7.145,7.145,0,0,0-538.933,0" transform="translate(597.11)" fill="#fe7701"/>
          </g>
          <g id="g1593" transform="translate(7.315 7.315)">
            <path id="path1595" d="M-475.807-462.57l-1.429,1.429-44.789.52h-3.2a1.949,1.949,0,0,1-1.948-1.949v-47.985a1.949,1.949,0,0,1,1.948-1.949h47.985a1.949,1.949,0,0,1,1.949,1.949v3.2Z" transform="translate(527.169 512.504)" fill="#feca9c"/>
          </g>
          <g id="g1597" transform="translate(12.46 12.46)">
            <path id="path1599" d="M0-432.962H44.789a1.949,1.949,0,0,0,1.949-1.949V-479.7A46.738,46.738,0,0,1,0-432.962" transform="translate(0 479.7)" fill="#fdb97e"/>
          </g>
          <g id="g1601" transform="translate(0 0)">
            <path id="path1603" d="M48.393-217.3H-1.881A8.128,8.128,0,0,1-10-225.419v-26.844a.974.974,0,0,1,.974-.974.974.974,0,0,1,.974.974v26.844a6.178,6.178,0,0,0,6.171,6.171H48.393a6.178,6.178,0,0,0,6.171-6.171v-50.274a6.178,6.178,0,0,0-6.171-6.171H-1.881a6.178,6.178,0,0,0-6.171,6.171v19.533a.974.974,0,0,1-.974.974.974.974,0,0,1-.974-.974v-19.533a8.128,8.128,0,0,1,8.119-8.119H48.393a8.128,8.128,0,0,1,8.119,8.119v50.274A8.128,8.128,0,0,1,48.393-217.3Z" transform="translate(10 283.813)"/>
          </g>
          <g id="g1605" transform="translate(6.341 6.341)">
            <path id="path1607" d="M-491.6-389.739h-47.985a2.926,2.926,0,0,1-2.923-2.923v-47.985a2.926,2.926,0,0,1,2.923-2.923H-491.6a2.926,2.926,0,0,1,2.923,2.923v36.4a.974.974,0,0,1-.974.974.974.974,0,0,1-.974-.974v-36.4a.975.975,0,0,0-.974-.974h-47.985a.975.975,0,0,0-.974.974v47.985a.975.975,0,0,0,.974.974H-491.6a.975.975,0,0,0,.974-.974v-7.691a.974.974,0,0,1,.974-.974.974.974,0,0,1,.974.974v7.691A2.926,2.926,0,0,1-491.6-389.739Z" transform="translate(542.504 443.57)"/>
          </g>
          <g id="g1609" transform="translate(14.124 14.154)">
            <path id="path1611" d="M-.535-8.051H-9.026A.974.974,0,0,1-10-9.026.974.974,0,0,1-9.026-10H-.535a.974.974,0,0,1,.974.974A.974.974,0,0,1-.535-8.051Z" transform="translate(10 10)"/>
          </g>
          <g id="g1613" transform="translate(14.124 50.41)">
            <path id="path1615" d="M-6.427-8.051h-2.6A.974.974,0,0,1-10-9.026.974.974,0,0,1-9.026-10h2.6a.974.974,0,0,1,.974.974A.974.974,0,0,1-6.427-8.051Z" transform="translate(10 10)"/>
          </g>
          <g id="g1617" transform="translate(14.124 18.877)">
            <path id="path1619" d="M-6.427-8.051h-2.6A.974.974,0,0,1-10-9.026.974.974,0,0,1-9.026-10h2.6a.974.974,0,0,1,.974.974A.974.974,0,0,1-6.427-8.051Z" transform="translate(10 10)"/>
          </g>
          <g id="g1621" transform="translate(40.524 12.727)">
            <path id="path1623" d="M-7.308-.016A.974.974,0,0,1-8.282-.99V-8.051h-.743A.974.974,0,0,1-10-9.026.974.974,0,0,1-9.026-10h1.718a.974.974,0,0,1,.974.974V-.99A.974.974,0,0,1-7.308-.016Z" transform="translate(10 10)"/>
          </g>
          <g id="g1625" transform="translate(26.921 26.971)">
            <path id="path1627" d="M-107.726-8.978a8.83,8.83,0,0,1-6.476-2.768.974.974,0,0,1,.068-1.376.974.974,0,0,1,1.376.068,6.854,6.854,0,0,0,5.032,2.128,3.828,3.828,0,0,0,3.957-2.776c.256-1.435-.786-2.7-2.861-3.462-2.527-.932-4.769-1.93-4.864-1.972a.974.974,0,0,1-.135-.074,4.168,4.168,0,0,1-1.858-4.127,4.731,4.731,0,0,1,3.445-3.8c3.953-1.191,7.227,1.51,7.365,1.625a.974.974,0,0,1,.119,1.373.974.974,0,0,1-1.37.121h0c-.026-.021-2.622-2.135-5.552-1.253a2.771,2.771,0,0,0-2.078,2.212,2.209,2.209,0,0,0,.933,2.178c.413.182,2.457,1.075,4.669,1.89,3.535,1.3,4.438,3.765,4.1,5.633C-102.3-10.862-104.822-8.978-107.726-8.978Z" transform="translate(114.454 27.44)"/>
          </g>
          <g id="g1629" transform="translate(45.998 12.813)">
            <path id="path1631" d="M-38.365-2.763a.985.985,0,0,1-.112-.006.974.974,0,0,1-.857-1.079,9.086,9.086,0,0,1,3.245-5.959.974.974,0,0,1,1.363.2.974.974,0,0,1-.2,1.361A7.235,7.235,0,0,0-37.4-3.627.974.974,0,0,1-38.365-2.763Z" transform="translate(39.341 10.001)"/>
          </g>
          <g id="g1633" transform="translate(45.973 16.115)">
            <path id="path1635" d="M-6.7-33.851a3.3,3.3,0,0,1,3.3,3.3,3.3,3.3,0,0,1-3.3,3.3,3.3,3.3,0,0,1-3.3-3.3A3.3,3.3,0,0,1-6.7-33.851Zm0,4.648a1.351,1.351,0,0,0,1.349-1.349A1.351,1.351,0,0,0-6.7-31.9a1.351,1.351,0,0,0-1.349,1.349A1.351,1.351,0,0,0-6.7-29.2Z" transform="translate(10 33.851)"/>
          </g>
        </g>
      </g>
    </g>
  </g>
</svg>
