<svg xmlns="http://www.w3.org/2000/svg" xmlns:xlink="http://www.w3.org/1999/xlink" width="115" height="115" viewBox="0 0 115 115">
  <defs>
    <clipPath id="clip-path">
      <rect id="Rectangle_411473" data-name="Rectangle 411473" width="115" height="115" transform="translate(800.781 1954)" fill="#e8bad8" opacity="0.41"/>
    </clipPath>
    <clipPath id="clip-path-2">
      <path id="path1683" d="M0-682.665H68.033v68.033H0Z" transform="translate(0 682.665)"/>
    </clipPath>
  </defs>
  <g id="Group_1207059" data-name="Group 1207059" transform="translate(6794 627)">
    <g id="Mask_Group_1099681" data-name="Mask Group 1099681" transform="translate(-7594.781 -2581)" clip-path="url(#clip-path)">
      <g id="Group_1206934" data-name="Group 1206934" transform="translate(799.781 1960.273)">
        <g id="Group_1206933" data-name="Group 1206933">
          <ellipse id="Ellipse_12817" data-name="Ellipse 12817" cx="28.658" cy="28.658" rx="28.658" ry="28.658" transform="translate(56.527 44.289)" fill="#7fe5cf"/>
          <ellipse id="Ellipse_12818" data-name="Ellipse 12818" cx="20.842" cy="20.842" rx="20.842" ry="20.842" fill="#7fe5cf"/>
        </g>
      </g>
    </g>
    <g id="g1677" transform="translate(-6771 79.665)">
      <g id="g1679" transform="translate(0 -682.665)">
        <g id="g1681" clip-path="url(#clip-path-2)">
          <g id="g1687" transform="translate(0.997 0.997)">
            <path id="path1689" d="M-530.6-596.625h-51.424a7.308,7.308,0,0,1-7.308-7.308v-51.424a7.308,7.308,0,0,1,7.308-7.308H-530.6a7.308,7.308,0,0,1,7.308,7.308v51.424a7.308,7.308,0,0,1-7.308,7.308" transform="translate(589.332 662.665)" fill="#a2e62e"/>
          </g>
          <g id="g1691" transform="translate(1.044 1.044)">
            <path id="path1693" d="M-537.6,0V11.7A47.806,47.806,0,0,1-585.41,59.507h-11.7a7.308,7.308,0,0,0,7.261,6.486h51.424a7.308,7.308,0,0,0,7.308-7.308V7.261A7.308,7.308,0,0,0-537.6,0" transform="translate(597.11)" fill="#8bc727"/>
          </g>
          <g id="g1695" transform="translate(7.482 7.482)">
            <path id="path1697" d="M-474.633-461.429l-1.462,1.462-45.813.532h-3.269a1.993,1.993,0,0,1-1.993-1.993v-49.082a1.993,1.993,0,0,1,1.993-1.993h49.082a1.993,1.993,0,0,1,1.993,1.993v3.269Z" transform="translate(527.169 512.504)" fill="#dbf4b2"/>
          </g>
          <g id="g1699" transform="translate(12.745 12.745)">
            <path id="path1701" d="M0-431.894H45.813a1.993,1.993,0,0,0,1.993-1.993V-479.7A47.806,47.806,0,0,1,0-431.894" transform="translate(0 479.7)" fill="#bbec6c"/>
          </g>
          <g id="g1703" transform="translate(0 0)">
            <path id="path1705" d="M49.728-215.779H-1.7a8.314,8.314,0,0,1-8.3-8.3v-27.458a1,1,0,0,1,1-1,1,1,0,0,1,1,1v27.458A6.319,6.319,0,0,0-1.7-217.773H49.728a6.319,6.319,0,0,0,6.312-6.312v-51.424a6.319,6.319,0,0,0-6.312-6.312H-1.7a6.319,6.319,0,0,0-6.312,6.312v19.979a1,1,0,0,1-1,1,1,1,0,0,1-1-1v-19.979a8.314,8.314,0,0,1,8.3-8.3H49.728a8.314,8.314,0,0,1,8.3,8.3v51.424A8.314,8.314,0,0,1,49.728-215.779Z" transform="translate(10 283.813)"/>
          </g>
          <g id="g1707" transform="translate(6.486 6.486)">
            <path id="path1709" d="M-490.432-388.508h-49.082a2.993,2.993,0,0,1-2.99-2.99V-440.58a2.993,2.993,0,0,1,2.99-2.99h49.082a2.993,2.993,0,0,1,2.99,2.99v37.229a1,1,0,0,1-1,1,1,1,0,0,1-1-1V-440.58a1,1,0,0,0-1-1h-49.082a1,1,0,0,0-1,1V-391.5a1,1,0,0,0,1,1h49.082a1,1,0,0,0,1-1v-7.866a1,1,0,0,1,1-1,1,1,0,0,1,1,1v7.866A2.993,2.993,0,0,1-490.432-388.508Z" transform="translate(542.504 443.57)"/>
          </g>
          <g id="g1711" transform="translate(14.446 14.102)">
            <path id="path1713" d="M-.318-8.007H-9a1,1,0,0,1-1-1,1,1,0,0,1,1-1H-.318a1,1,0,0,1,1,1A1,1,0,0,1-.318-8.007Z" transform="translate(10 10)"/>
          </g>
          <g id="g1715" transform="translate(14.446 51.187)">
            <path id="path1717" d="M-6.345-8.007H-9a1,1,0,0,1-1-1,1,1,0,0,1,1-1h2.658a1,1,0,0,1,1,1A1,1,0,0,1-6.345-8.007Z" transform="translate(10 10)"/>
          </g>
          <g id="g1719" transform="translate(14.446 18.933)">
            <path id="path1721" d="M-6.345-8.007H-9a1,1,0,0,1-1-1,1,1,0,0,1,1-1h2.658a1,1,0,0,1,1,1A1,1,0,0,1-6.345-8.007Z" transform="translate(10 10)"/>
          </g>
          <g id="g1723" transform="translate(22.936 27.589)">
            <path id="path1725" d="M-132.674-5.589a9.452,9.452,0,0,1-9.441-9.441,9.452,9.452,0,0,1,9.441-9.441,9.4,9.4,0,0,1,5.279,1.613,1,1,0,0,1,.268,1.384,1,1,0,0,1-1.384.268,7.409,7.409,0,0,0-4.164-1.271,7.457,7.457,0,0,0-7.448,7.448,7.457,7.457,0,0,0,7.448,7.448A5.779,5.779,0,0,0-128.7-9.007a5.813,5.813,0,0,0,.585-.6,1,1,0,0,1,1.4-.123,1,1,0,0,1,.123,1.4,7.815,7.815,0,0,1-.786.811A7.817,7.817,0,0,1-132.674-5.589Z" transform="translate(142.116 24.472)"/>
          </g>
          <g id="g1727" transform="translate(43.104 27.553)">
            <path id="path1729" d="M-9,8.919a1,1,0,0,1-1-1V-9a1,1,0,0,1,1-1,1,1,0,0,1,1,1V7.923A1,1,0,0,1-9,8.919Z" transform="translate(10 10)"/>
          </g>
          <g id="g1731" transform="translate(47.493 13.012)">
            <path id="path1733" d="M-8.1.213A.993.993,0,0,1-8.5.128a1,1,0,0,1-.511-1.313l3-6.822H-9a1,1,0,0,1-1-1,1,1,0,0,1,1-1h4.522a1,1,0,0,1,.835.452,1,1,0,0,1,.078.946L-7.182-.383A1,1,0,0,1-8.1.213Z" transform="translate(10 10)"/>
          </g>
          <g id="g1735" transform="translate(41.418 13.006)">
            <path id="path1737" d="M-7.244.224a1,1,0,0,1-1-1V-8.007H-9a1,1,0,0,1-1-1,1,1,0,0,1,1-1h1.759a1,1,0,0,1,1,1V-.772A1,1,0,0,1-7.244.224Z" transform="translate(10 10)"/>
          </g>
        </g>
      </g>
    </g>
  </g>
</svg>
