<svg xmlns="http://www.w3.org/2000/svg" xmlns:xlink="http://www.w3.org/1999/xlink" width="115" height="115" viewBox="0 0 115 115">
  <defs>
    <clipPath id="clip-path">
      <rect id="Rectangle_411469" data-name="Rectangle 411469" width="115" height="115" transform="translate(800.781 1954)" fill="#e8bad8" opacity="0.41"/>
    </clipPath>
    <clipPath id="clip-path-2">
      <path id="path453" d="M0-682.665H67.736v67.736H0Z" transform="translate(0 682.665)"/>
    </clipPath>
  </defs>
  <g id="Group_1207057" data-name="Group 1207057" transform="translate(6461 1000.977)">
    <g id="Mask_Group_1099679" data-name="Mask Group 1099679" transform="translate(-7261.781 -2954.977)" clip-path="url(#clip-path)">
      <g id="Group_1206930" data-name="Group 1206930" transform="translate(799.781 1960.273)">
        <g id="Group_1206929" data-name="Group 1206929">
          <ellipse id="Ellipse_12813" data-name="Ellipse 12813" cx="28.658" cy="28.658" rx="28.658" ry="28.658" transform="translate(56.527 44.289)" fill="#7fe5cf"/>
          <ellipse id="Ellipse_12814" data-name="Ellipse 12814" cx="20.842" cy="20.842" rx="20.842" ry="20.842" fill="#7fe5cf"/>
        </g>
      </g>
    </g>
    <g id="g447" transform="translate(-6437.369 -293.728)">
      <g id="g449" transform="translate(0 -682.665)">
        <g id="g451" clip-path="url(#clip-path-2)">
          <g id="g457" transform="translate(0.992 0.992)">
            <path id="path459" d="M-530.856-596.913h-51.2a7.276,7.276,0,0,1-7.276-7.276v-51.2a7.276,7.276,0,0,1,7.276-7.276h51.2a7.276,7.276,0,0,1,7.276,7.276v51.2a7.276,7.276,0,0,1-7.276,7.276" transform="translate(589.332 662.665)" fill="#fe646f"/>
          </g>
          <g id="g461" transform="translate(1.039 1.039)">
            <path id="path463" d="M-537.863,0V11.65a47.6,47.6,0,0,1-47.6,47.6h-11.65a7.276,7.276,0,0,0,7.229,6.458h51.2a7.276,7.276,0,0,0,7.276-7.276V7.229A7.276,7.276,0,0,0-537.863,0" transform="translate(597.11)" fill="#fb2b3a"/>
          </g>
          <g id="g465" transform="translate(7.45 7.45)">
            <path id="path467" d="M-474.862-461.652l-1.455,1.455-45.613.529h-3.255a1.984,1.984,0,0,1-1.984-1.984V-510.52a1.984,1.984,0,0,1,1.984-1.984h48.868a1.984,1.984,0,0,1,1.984,1.984v3.255Z" transform="translate(527.169 512.504)" fill="#fdb4ba"/>
          </g>
          <g id="g469" transform="translate(12.689 12.689)">
            <path id="path471" d="M0-432.1H45.613a1.985,1.985,0,0,0,1.984-1.984V-479.7A47.6,47.6,0,0,1,0-432.1" transform="translate(0 479.7)" fill="#fe99a0"/>
          </g>
          <g id="g473" transform="translate(0 0)">
            <path id="path475" d="M49.468-216.076h-51.2A8.278,8.278,0,0,1-10-224.345v-27.338a.992.992,0,0,1,.992-.992.992.992,0,0,1,.992.992v27.338a6.291,6.291,0,0,0,6.284,6.284h51.2a6.291,6.291,0,0,0,6.284-6.284v-51.2a6.291,6.291,0,0,0-6.284-6.284h-51.2a6.291,6.291,0,0,0-6.284,6.284v19.892a.992.992,0,0,1-.992.992.992.992,0,0,1-.992-.992v-19.892a8.278,8.278,0,0,1,8.269-8.269h51.2a8.278,8.278,0,0,1,8.269,8.269v51.2A8.278,8.278,0,0,1,49.468-216.076Z" transform="translate(10 283.813)"/>
          </g>
          <g id="g477" transform="translate(6.458 6.457)">
            <path id="path479" d="M-490.659-388.748h-48.868a2.98,2.98,0,0,1-2.977-2.977v-48.868a2.98,2.98,0,0,1,2.977-2.977h48.868a2.98,2.98,0,0,1,2.977,2.977v37.067a.992.992,0,0,1-.992.992.992.992,0,0,1-.992-.992v-37.067a.993.993,0,0,0-.992-.992h-48.868a.993.993,0,0,0-.992.992v48.868a.993.993,0,0,0,.992.992h48.868a.993.993,0,0,0,.992-.992v-7.832a.992.992,0,0,1,.992-.992.992.992,0,0,1,.992.992v7.832A2.98,2.98,0,0,1-490.659-388.748Z" transform="translate(542.504 443.57)"/>
          </g>
          <g id="g481" transform="translate(14.266 14.414)">
            <path id="path483" d="M-.361-8.016H-9.008A.992.992,0,0,1-10-9.008.992.992,0,0,1-9.008-10H-.361a.992.992,0,0,1,.992.992A.992.992,0,0,1-.361-8.016Z" transform="translate(10 10)"/>
          </g>
          <g id="g485" transform="translate(14.266 51.338)">
            <path id="path487" d="M-6.361-8.016H-9.008A.992.992,0,0,1-10-9.008.992.992,0,0,1-9.008-10h2.647a.992.992,0,0,1,.992.992A.992.992,0,0,1-6.361-8.016Z" transform="translate(10 10)"/>
          </g>
          <g id="g489" transform="translate(14.266 19.224)">
            <path id="path491" d="M-6.361-8.016H-9.008A.992.992,0,0,1-10-9.008.992.992,0,0,1-9.008-10h2.647a.992.992,0,0,1,.992.992A.992.992,0,0,1-6.361-8.016Z" transform="translate(10 10)"/>
          </g>
          <g id="g493" transform="translate(27.744 27.628)">
            <path id="path495" d="M-97.233-49h4.885a4.867,4.867,0,0,1,4.862,4.862,4.867,4.867,0,0,1-4.862,4.862c-1.059,0-4.88.017-4.88.017a.992.992,0,0,1-.7-.289.992.992,0,0,1-.292-.7V-48A.992.992,0,0,1-97.233-49Zm.992,7.752c1.21-.005,3.178-.013,3.892-.013a2.88,2.88,0,0,0,2.877-2.877,2.88,2.88,0,0,0-2.877-2.877h-3.892Z" transform="translate(98.225 48.996)"/>
          </g>
          <g id="g497" transform="translate(27.744 35.215)">
            <path id="path499" d="M-112.451-55.617h5.738A5.525,5.525,0,0,1-101.2-50.1a5.525,5.525,0,0,1-5.519,5.519c-1.239,0-5.733.02-5.733.02a.992.992,0,0,1-.7-.289.992.992,0,0,1-.292-.7v-9.073A.992.992,0,0,1-112.451-55.617Zm.992,9.068c1.4-.006,3.875-.016,4.746-.016A3.538,3.538,0,0,0-103.18-50.1a3.538,3.538,0,0,0-3.534-3.534h-4.746Z" transform="translate(113.444 55.617)"/>
          </g>
          <g id="g501" transform="translate(46.72 12.812)">
            <path id="path503" d="M-49.04.294a3.481,3.481,0,0,1-3.087-1.855.992.992,0,0,1,.41-1.342.992.992,0,0,1,1.342.41,1.507,1.507,0,0,0,1.367.8,1.514,1.514,0,0,0,1.477-1.429,1.5,1.5,0,0,0-.413-1.121,1.5,1.5,0,0,0-1.1-.471,2.412,2.412,0,0,0-1.19.235A1.043,1.043,0,0,1-51.3-4.543a.991.991,0,0,1-.424-.951l.609-3.676a.992.992,0,0,1,.979-.83h3.075a.992.992,0,0,1,.992.992.992.992,0,0,1-.992.992h-2.233l-.221,1.335c.146-.01.3-.015.474-.015a3.51,3.51,0,0,1,2.535,1.089,3.467,3.467,0,0,1,.956,2.591A3.506,3.506,0,0,1-48.968.293Z" transform="translate(52.243 10)"/>
          </g>
        </g>
      </g>
    </g>
  </g>
</svg>
