<svg xmlns="http://www.w3.org/2000/svg" xmlns:xlink="http://www.w3.org/1999/xlink" width="115" height="115" viewBox="0 0 115 115">
  <defs>
    <clipPath id="clip-path">
      <rect id="Rectangle_411467" data-name="Rectangle 411467" width="115" height="115" transform="translate(800.781 1954)" fill="#e8bad8" opacity="0.41"/>
    </clipPath>
  </defs>
  <g id="Group_1207056" data-name="Group 1207056" transform="translate(6794 1001)">
    <g id="Mask_Group_1099678" data-name="Mask Group 1099678" transform="translate(-7594.781 -2955)" clip-path="url(#clip-path)">
      <g id="Group_1206928" data-name="Group 1206928" transform="translate(799.781 1960.273)">
        <g id="Group_1206927" data-name="Group 1206927">
          <ellipse id="Ellipse_12811" data-name="Ellipse 12811" cx="28.658" cy="28.658" rx="28.658" ry="28.658" transform="translate(56.527 44.289)" fill="#7fe5cf"/>
          <ellipse id="Ellipse_12812" data-name="Ellipse 12812" cx="20.842" cy="20.842" rx="20.842" ry="20.842" fill="#7fe5cf"/>
        </g>
      </g>
    </g>
    <g id="_12_Magnesium" data-name="12 Magnesium" transform="translate(-6775.004 -982.004)">
      <rect id="Rectangle_411570" data-name="Rectangle 411570" width="65.493" height="65.493" rx="10" transform="translate(5.878 5.635)" fill="#9f5adb"/>
      <path id="Path_1252035" data-name="Path 1252035" d="M60.254,226.917H18.52A7.516,7.516,0,0,1,11,219.4V184.7A66.843,66.843,0,0,0,60.254,226.917Z" transform="translate(-5.199 -155.717)" fill="#8f59c9"/>
      <rect id="Rectangle_411571" data-name="Rectangle 411571" width="55.648" height="55.648" rx="6" transform="translate(66.326 10.678) rotate(90)" fill="#d197f2"/>
      <path id="Path_1252036" data-name="Path 1252036" d="M77.1,289.088H52.837a5.313,5.313,0,0,1-5.313-5.313v-21.7A67,67,0,0,0,77.1,289.088Z" transform="translate(-36.845 -222.761)" fill="#bf8de0"/>
      <g id="Group_1207055" data-name="Group 1207055" transform="translate(15.518 15.421)">
        <path id="Path_1252037" data-name="Path 1252037" d="M89.595,217.737a2.7,2.7,0,0,1,2.558,1.846l4.323,13.007a.351.351,0,0,0,.666,0l4.366-13.019a2.69,2.69,0,0,1,5.2.41l3.032,18.073a2.064,2.064,0,0,1-4.071.687l-1.911-11.257a.351.351,0,0,0-.679-.053l-3.776,11.225a2.648,2.648,0,0,1-5.023-.007l-3.741-11.22a.351.351,0,0,0-.679.051l-1.957,11.258a2.078,2.078,0,0,1-4.1-.711l3.126-18.055A2.7,2.7,0,0,1,89.595,217.737Z" transform="translate(-83.781 -199.763)" fill="#f7f5fb"/>
        <path id="Path_1252038" data-name="Path 1252038" d="M313.234,259.257h.494a1.854,1.854,0,0,1,1.854,1.854v12.544q0,4.264-1.715,6.272-2.3,2.719-6.936,2.719a12.147,12.147,0,0,1-4.156-.618,7.472,7.472,0,0,1-2.842-1.815l-.023-.024a1.714,1.714,0,0,1,1.253-2.888h.974a1.761,1.761,0,0,1,1.133.4,4.027,4.027,0,0,0,1.189.679,6.588,6.588,0,0,0,2.3.363,6.069,6.069,0,0,0,2.734-.525,3.172,3.172,0,0,0,1.46-1.359,6.887,6.887,0,0,0,.425-2.873,6.985,6.985,0,0,1-2.333,1.6,7.416,7.416,0,0,1-2.765.487,7.6,7.6,0,0,1-5.716-2.441,9.472,9.472,0,0,1,.139-12.606,7.374,7.374,0,0,1,5.345-2.194,7.11,7.11,0,0,1,2.742.533,8.691,8.691,0,0,1,2.588,1.753A1.854,1.854,0,0,1,313.234,259.257Zm-6.226,3.507a4.391,4.391,0,0,0-3.29,1.336,4.629,4.629,0,0,0-1.3,3.36,4.693,4.693,0,0,0,1.329,3.445,4.5,4.5,0,0,0,3.337,1.344,4.318,4.318,0,0,0,3.236-1.313,4.736,4.736,0,0,0,1.274-3.445,4.68,4.68,0,0,0-1.282-3.414A4.42,4.42,0,0,0,307.009,262.764Z" transform="translate(-269.613 -235.366)" fill="#f7f5fb"/>
        <path id="Path_1252039" data-name="Path 1252039" d="M263.784,87.493a1.178,1.178,0,0,1-1.122-1.535,4.132,4.132,0,0,1,1.038-1.717,4.586,4.586,0,0,1,5.14-.695,3.676,3.676,0,0,1,1.424,1.415,3.721,3.721,0,0,1,.534,1.88,5.565,5.565,0,0,1-.647,2.449,13.347,13.347,0,0,1-2.367,3.1l-1.093,1.152a.212.212,0,0,0,.154.359h2.933a1.124,1.124,0,1,1,0,2.249h-6.9a.826.826,0,0,1-.59-1.4L266,90.957a11.531,11.531,0,0,0,1.906-2.331,3.432,3.432,0,0,0,.473-1.593,1.639,1.639,0,0,0-.491-1.22,1.616,1.616,0,0,0-.536-.352,1.852,1.852,0,0,0-2.309.857,2.22,2.22,0,0,0-.141.342A1.185,1.185,0,0,1,263.784,87.493Z" transform="translate(-238.262 -83.055)" fill="#f7f5fb"/>
        <path id="Path_1252040" data-name="Path 1252040" d="M203.411,83.061h2.223a.967.967,0,0,1,.967.967V95.189a.967.967,0,0,1-.967.967h-.541a.967.967,0,0,1-.967-.967V85.981a.578.578,0,0,0-.578-.578h-.388a.967.967,0,0,1-.823-1.473l.251-.408A.967.967,0,0,1,203.411,83.061Z" transform="translate(-186.39 -83.06)" fill="#f7f5fb"/>
      </g>
      <path id="Path_1252041" data-name="Path 1252041" d="M88.352,329.9l-.444,2.558a2.078,2.078,0,1,1-4.095-.711l1.014-5.856Q86.507,327.968,88.352,329.9Z" transform="translate(-68.264 -278.064)" fill="#e4e3e8"/>
      <path id="Path_1252042" data-name="Path 1252042" d="M63.684,72H13.32A8.326,8.326,0,0,1,5,63.684V27.844a.8.8,0,0,1,1.6,0V63.684A6.723,6.723,0,0,0,13.32,70.4H63.684A6.723,6.723,0,0,0,70.4,63.684V13.32a6.723,6.723,0,0,0-6.716-6.714H13.32A6.722,6.722,0,0,0,6.606,13.32V21.6a.8.8,0,1,1-1.6,0V13.32A8.325,8.325,0,0,1,13.32,5H63.684A8.326,8.326,0,0,1,72,13.32V63.684A8.327,8.327,0,0,1,63.684,72Z" transform="translate(0)"/>
      <path id="Path_1252043" data-name="Path 1252043" d="M5.805,145.046a.8.8,0,0,1-.8-.8v-1.2a.8.8,0,1,1,1.6,0v1.2A.8.8,0,0,1,5.805,145.046Z" transform="translate(0 -118.924)"/>
      <path id="Path_1252044" data-name="Path 1252044" d="M92.656,98.769H47.634a6.121,6.121,0,0,1-6.114-6.114V47.634a6.121,6.121,0,0,1,6.114-6.114H92.656a6.121,6.121,0,0,1,6.114,6.114V92.655A6.121,6.121,0,0,1,92.656,98.769ZM47.634,43.122a4.518,4.518,0,0,0-4.512,4.512V92.655a4.517,4.517,0,0,0,4.512,4.512H92.656a4.518,4.518,0,0,0,4.512-4.512V47.634a4.517,4.517,0,0,0-4.512-4.512Z" transform="translate(-31.643 -31.643)"/>
      <path id="Path_1252045" data-name="Path 1252045" d="M102.5,236.063a2.858,2.858,0,0,1-2.825-2.385l-1.612-9.493-3.205,9.529a3.449,3.449,0,0,1-6.541-.009l-3.177-9.527-1.651,9.5a2.879,2.879,0,0,1-5.674-.984l3.126-18.055a3.5,3.5,0,0,1,6.764-.506l3.9,11.728,3.938-11.741a3.491,3.491,0,0,1,6.753.533l3.032,18.073a2.865,2.865,0,0,1-2.826,3.339Zm-4.293-14.869q.045,0,.091,0a1.15,1.15,0,0,1,1.045.955l1.911,11.257a1.264,1.264,0,1,0,2.492-.421l-3.032-18.073a1.889,1.889,0,0,0-3.655-.288L92.7,227.646a1.15,1.15,0,0,1-1.092.785h0a1.15,1.15,0,0,1-1.091-.788L86.19,214.636a1.9,1.9,0,0,0-3.666.274L79.4,232.966a1.278,1.278,0,0,0,2.518.437l1.957-11.258a1.152,1.152,0,0,1,2.227-.167L89.84,233.2a1.848,1.848,0,0,0,3.5,0l3.776-11.225a1.15,1.15,0,0,1,1.091-.785Z" transform="translate(-63.06 -179.142)"/>
      <path id="Path_1252046" data-name="Path 1252046" d="M301.733,278.248a12.989,12.989,0,0,1-4.431-.667,8.3,8.3,0,0,1-3.142-2.01l-.026-.027a2.46,2.46,0,0,1-.49-2.707,2.49,2.49,0,0,1,2.321-1.537h.974a2.564,2.564,0,0,1,1.647.582,3.251,3.251,0,0,0,.955.542,5.831,5.831,0,0,0,2.022.312,5.335,5.335,0,0,0,2.372-.439,2.379,2.379,0,0,0,1.109-1.009,2.673,2.673,0,0,0,.215-.738,6.794,6.794,0,0,1-1.112.571,8.245,8.245,0,0,1-3.062.544,8.406,8.406,0,0,1-6.295-2.688,10.269,10.269,0,0,1,.157-13.73,8.182,8.182,0,0,1,5.906-2.423,7.94,7.94,0,0,1,3.048.594,8.484,8.484,0,0,1,1.877,1.1,2.655,2.655,0,0,1,2.259-1.261h.494a2.658,2.658,0,0,1,2.655,2.655v12.544c0,3.025-.641,5.31-1.906,6.792-1.685,1.99-4.224,3-7.545,3Zm-5.768-5.345a.908.908,0,0,0-.848.564.879.879,0,0,0,.173.97l.02.021a6.716,6.716,0,0,0,2.544,1.621,11.429,11.429,0,0,0,3.88.569c2.868,0,4.937-.8,6.325-2.436,1.013-1.186,1.525-3.121,1.525-5.755V255.913a1.054,1.054,0,0,0-1.053-1.053h-.494a1.054,1.054,0,0,0-1.053,1.053.8.8,0,0,1-1.349.583,7.947,7.947,0,0,0-2.345-1.6,6.347,6.347,0,0,0-2.436-.472,6.545,6.545,0,0,0-4.785,1.965,8.676,8.676,0,0,0-.12,11.48,6.772,6.772,0,0,0,5.137,2.193,6.659,6.659,0,0,0,2.469-.43,6.228,6.228,0,0,0,2.063-1.421.8.8,0,0,1,1.367.566,7.492,7.492,0,0,1-.512,3.237,3.965,3.965,0,0,1-1.811,1.71,6.871,6.871,0,0,1-3.1.612,7.409,7.409,0,0,1-2.582-.413,4.844,4.844,0,0,1-1.423-.815.962.962,0,0,0-.619-.208Zm5.922-5.052a5.292,5.292,0,0,1-3.906-1.582,5.487,5.487,0,0,1-1.56-4.008,5.424,5.424,0,0,1,1.524-3.918,5.567,5.567,0,0,1,7.744-.025,5.473,5.473,0,0,1,1.51,3.974,5.529,5.529,0,0,1-1.5,4,5.109,5.109,0,0,1-3.811,1.556Zm-.077-9.485a3.592,3.592,0,0,0-2.716,1.093,3.825,3.825,0,0,0-1.071,2.8,3.89,3.89,0,0,0,1.1,2.882,3.7,3.7,0,0,0,2.767,1.106,3.517,3.517,0,0,0,2.662-1.07,3.934,3.934,0,0,0,1.048-2.887,3.878,3.878,0,0,0-1.054-2.855,3.619,3.619,0,0,0-2.733-1.072Z" transform="translate(-248.896 -214.747)"/>
      <path id="Path_1252047" data-name="Path 1252047" d="M264.578,91.753h-6.9a1.627,1.627,0,0,1-1.162-2.766l3.715-3.788a10.916,10.916,0,0,0,1.772-2.15,2.681,2.681,0,0,0,.378-1.214.84.84,0,0,0-.251-.649.813.813,0,0,0-.272-.179,1.053,1.053,0,0,0-1.3.482,1.426,1.426,0,0,0-.09.219,1.977,1.977,0,1,1-3.77-1.191,4.943,4.943,0,0,1,1.238-2.044,5.383,5.383,0,0,1,6.089-.826,4.714,4.714,0,0,1,2.372,4,6.377,6.377,0,0,1-.73,2.8,13.967,13.967,0,0,1-2.508,3.3l-.147.155h1.564a1.925,1.925,0,0,1,0,3.85Zm-3.086-12.418a2.588,2.588,0,0,1,.963.185,2.42,2.42,0,0,1,.8.524,2.451,2.451,0,0,1,.73,1.791,4.223,4.223,0,0,1-.569,1.972,12.123,12.123,0,0,1-2.042,2.515l-3.712,3.786a.025.025,0,0,0,.018.043h6.9a.324.324,0,0,0,0-.647h-2.933a1.013,1.013,0,0,1-.735-1.711L262,86.641a12.683,12.683,0,0,0,2.23-2.9,4.811,4.811,0,0,0,.565-2.094,2.909,2.909,0,0,0-.427-1.479,2.865,2.865,0,0,0-1.117-1.115,3.371,3.371,0,0,0-1.667-.391,3.413,3.413,0,0,0-2.525.955,3.313,3.313,0,0,0-.837,1.39.377.377,0,0,0,.359.49.386.386,0,0,0,.361-.277,3.035,3.035,0,0,1,.192-.464,2.657,2.657,0,0,1,2.355-1.418Z" transform="translate(-217.544 -62.436)"/>
      <path id="Path_1252048" data-name="Path 1252048" d="M200.434,91.757h-.542a1.769,1.769,0,0,1-1.767-1.767V81h-.166a1.767,1.767,0,0,1-1.5-2.694l.251-.408a1.779,1.779,0,0,1,1.5-.84h2.223a1.769,1.769,0,0,1,1.767,1.767V89.99a1.769,1.769,0,0,1-1.767,1.767Zm-2.223-13.094a.165.165,0,0,0-.141.079l-.251.408a.166.166,0,0,0,.141.253h.388a1.38,1.38,0,0,1,1.379,1.379V89.99a.166.166,0,0,0,.166.166h.542a.166.166,0,0,0,.166-.166V78.829a.166.166,0,0,0-.166-.166Z" transform="translate(-165.672 -62.44)"/>
    </g>
  </g>
</svg>
