<svg xmlns="http://www.w3.org/2000/svg" xmlns:xlink="http://www.w3.org/1999/xlink" width="115" height="115" viewBox="0 0 115 115">
  <defs>
    <clipPath id="clip-path">
      <rect id="Rectangle_411036" data-name="Rectangle 411036" width="115" height="115" transform="translate(800.781 1954)" fill="#e8bad8" opacity="0.41"/>
    </clipPath>
  </defs>
  <g id="Group_1207051" data-name="Group 1207051" transform="translate(-746.05 -10607)">
    <g id="Mask_Group_1099369" data-name="Mask Group 1099369" transform="translate(-54.73 8653)" clip-path="url(#clip-path)">
      <g id="Group_1203765" data-name="Group 1203765" transform="translate(799.781 1960.273)">
        <g id="Group_1203764" data-name="Group 1203764">
          <ellipse id="Ellipse_12700" data-name="Ellipse 12700" cx="28.658" cy="28.658" rx="28.658" ry="28.658" transform="translate(56.527 44.289)" fill="#7fe5cf"/>
          <ellipse id="Ellipse_12701" data-name="Ellipse 12701" cx="20.842" cy="20.842" rx="20.842" ry="20.842" fill="#7fe5cf"/>
        </g>
      </g>
    </g>
    <g id="Page-1" transform="translate(770.051 10631)">
      <g id="_027---Phosphorus" data-name="027---Phosphorus">
        <g id="Icons" transform="translate(1.116 1.116)">
          <rect id="Rectangle" width="65" height="65" rx="10" transform="translate(-0.116 -0.167)" fill="#fec108"/>
          <path id="Path" d="M12.927,4H10.695A6.7,6.7,0,0,0,4,10.695V53.1a6.7,6.7,0,0,0,6.695,6.695H53.1A6.7,6.7,0,0,0,59.791,53.1v-42.4A6.7,6.7,0,0,0,53.1,4Z" transform="translate(0.463 0.463)" fill="#ffdc00" fill-rule="evenodd"/>
          <path id="Path-2" data-name="Path" d="M48.347,4H45a6.7,6.7,0,0,1,6.695,6.695V53.1A6.7,6.7,0,0,1,45,59.791h3.347A6.7,6.7,0,0,0,55.042,53.1v-42.4A6.7,6.7,0,0,0,48.347,4Z" transform="translate(5.212 0.463)" fill="#fec108" fill-rule="evenodd"/>
          <g id="Group_1207049" data-name="Group 1207049" transform="translate(22.316 7.811)">
            <path id="Path-3" data-name="Path" d="M22.735,11.276,24.347,10.2v11.3a1.116,1.116,0,0,0,2.232,0V8.116a1.116,1.116,0,0,0-1.735-.928L21.5,9.419a1.116,1.116,0,0,0,1.239,1.857Z" transform="translate(-19.884 -7)" fill="#f5f5f5" fill-rule="evenodd"/>
            <path id="Path-4" data-name="Path" d="M29.7,16.06a1.116,1.116,0,0,0,1.227-.273,4.392,4.392,0,0,1,2.79-.976,2.954,2.954,0,0,1,3.09,2.79,2.954,2.954,0,0,1-3.087,2.79A3.18,3.18,0,0,1,31.053,19a1.116,1.116,0,0,0-1.875,1.21,5.356,5.356,0,0,0,4.545,2.411A5.183,5.183,0,0,0,39.042,17.6a5.183,5.183,0,0,0-5.319-5.021,7.4,7.4,0,0,0-2.492.47V9.232h6.695a1.116,1.116,0,1,0,0-2.232H30.116A1.116,1.116,0,0,0,29,8.116v6.907a1.116,1.116,0,0,0,.7,1.038Z" transform="translate(-18.958 -7)" fill="#f5f5f5" fill-rule="evenodd"/>
            <path id="Shape" d="M21.116,53.011h2.232A1.116,1.116,0,0,0,24.463,51.9V41.853h6.695a8.927,8.927,0,0,0,0-17.853H21.116A1.116,1.116,0,0,0,20,25.116V51.9A1.116,1.116,0,0,0,21.116,53.011ZM31.158,28.463a4.463,4.463,0,0,1,0,8.927H24.463V28.463Z" transform="translate(-20 -5.031)" fill="#f5f5f5"/>
          </g>
        </g>
        <g id="Icons_copy">
          <path id="Shape-2" data-name="Shape" d="M54.675,0h-42.4A12.289,12.289,0,0,0,0,12.274v42.4A12.289,12.289,0,0,0,12.274,66.949h42.4A12.289,12.289,0,0,0,66.949,54.675v-42.4A12.289,12.289,0,0,0,54.675,0ZM64.718,54.675A10.054,10.054,0,0,1,54.675,64.718h-42.4A10.054,10.054,0,0,1,2.232,54.675v-42.4A10.054,10.054,0,0,1,12.274,2.232h42.4A10.054,10.054,0,0,1,64.718,12.274Z"/>
          <path id="Path-5" data-name="Path" d="M52.59,4H19.116a1.116,1.116,0,1,0,0,2.232H52.59a5.586,5.586,0,0,1,5.579,5.579v42.4a5.586,5.586,0,0,1-5.579,5.579H50.359a1.116,1.116,0,1,0,0,2.232H52.59A7.82,7.82,0,0,0,60.4,54.212v-42.4A7.82,7.82,0,0,0,52.59,4Z" transform="translate(2.085 0.463)" fill-rule="evenodd"/>
          <path id="Path-6" data-name="Path" d="M45.285,59.791H11.811a5.586,5.586,0,0,1-5.579-5.579v-42.4a5.586,5.586,0,0,1,5.579-5.579h2.232a1.116,1.116,0,0,0,0-2.232H11.811A7.82,7.82,0,0,0,4,11.811v42.4a7.82,7.82,0,0,0,7.811,7.811H45.285a1.116,1.116,0,1,0,0-2.232Z" transform="translate(0.463 0.463)" fill-rule="evenodd"/>
          <path id="Path-7" data-name="Path" d="M26.463,23.622a1.116,1.116,0,0,0,1.116-1.116V9.116a1.116,1.116,0,0,0-1.735-.928L22.5,10.419a1.116,1.116,0,0,0,1.239,1.857L25.347,11.2v11.3A1.116,1.116,0,0,0,26.463,23.622Z" transform="translate(2.548 0.927)" fill-rule="evenodd"/>
          <path id="Path-8" data-name="Path" d="M38.927,10.232a1.116,1.116,0,0,0,0-2.232H31.116A1.116,1.116,0,0,0,30,9.116v6.907a1.116,1.116,0,0,0,1.928.764,4.392,4.392,0,0,1,2.79-.976,2.954,2.954,0,0,1,3.093,2.79,2.954,2.954,0,0,1-3.087,2.79A3.18,3.18,0,0,1,32.053,20a1.116,1.116,0,0,0-1.875,1.21,5.356,5.356,0,0,0,4.545,2.411A5.183,5.183,0,0,0,40.042,18.6a5.183,5.183,0,0,0-5.319-5.021,7.4,7.4,0,0,0-2.492.47V10.232Z" transform="translate(3.475 0.927)" fill-rule="evenodd"/>
          <g id="Group_1207050" data-name="Group 1207050" transform="translate(22.316 26.78)">
            <path id="Shape-3" data-name="Shape" d="M20,26.232v26.78a2.232,2.232,0,0,0,2.232,2.232h2.232a2.232,2.232,0,0,0,2.232-2.232V44.085h5.579a10.042,10.042,0,1,0,0-20.085H22.232A2.232,2.232,0,0,0,20,26.232Zm20.085,7.811a7.8,7.8,0,0,1-7.811,7.811H25.579a1.116,1.116,0,0,0-1.116,1.116V53.011H22.232V26.232H32.274a7.82,7.82,0,0,1,7.811,7.811Z" transform="translate(-20 -24)"/>
            <path id="Shape-4" data-name="Shape" d="M25.116,39.158h6.695a5.579,5.579,0,1,0,0-11.158H25.116A1.116,1.116,0,0,0,24,29.116v8.927A1.116,1.116,0,0,0,25.116,39.158Zm1.116-8.927h5.579a3.347,3.347,0,1,1,0,6.695H26.232Z" transform="translate(-19.537 -23.537)"/>
          </g>
        </g>
      </g>
    </g>
  </g>
</svg>
