<svg xmlns="http://www.w3.org/2000/svg" xmlns:xlink="http://www.w3.org/1999/xlink" width="115" height="115" viewBox="0 0 115 115">
  <defs>
    <clipPath id="clip-path">
      <rect id="Rectangle_411481" data-name="Rectangle 411481" width="115" height="115" transform="translate(800.781 1954)" fill="#e8bad8" opacity="0.41"/>
    </clipPath>
    <clipPath id="clip-path-2">
      <path id="path2991" d="M0-682.665H69.744v69.744H0Z" transform="translate(0 682.665)"/>
    </clipPath>
  </defs>
  <g id="Group_1207064" data-name="Group 1207064" transform="translate(5476 627)">
    <g id="Mask_Group_1099685" data-name="Mask Group 1099685" transform="translate(-6276.781 -2581)" clip-path="url(#clip-path)">
      <g id="Group_1206942" data-name="Group 1206942" transform="translate(799.781 1960.273)">
        <g id="Group_1206941" data-name="Group 1206941">
          <ellipse id="Ellipse_12825" data-name="Ellipse 12825" cx="28.658" cy="28.658" rx="28.658" ry="28.658" transform="translate(56.527 44.289)" fill="#7fe5cf"/>
          <ellipse id="Ellipse_12826" data-name="Ellipse 12826" cx="20.842" cy="20.842" rx="20.842" ry="20.842" fill="#7fe5cf"/>
        </g>
      </g>
    </g>
    <g id="g2985" transform="translate(-5453 78.665)">
      <g id="g2987" transform="translate(0 -682.665)">
        <g id="g2989" clip-path="url(#clip-path-2)">
          <g id="g2995" transform="translate(1.022 1.022)">
            <path id="path2997" d="M-529.123-594.964H-581.84a7.492,7.492,0,0,1-7.492-7.492v-52.717a7.492,7.492,0,0,1,7.492-7.492h52.717a7.492,7.492,0,0,1,7.492,7.492v52.717a7.492,7.492,0,0,1-7.492,7.492" transform="translate(589.332 662.665)" fill="#01d0fb"/>
          </g>
          <g id="g2999" transform="translate(1.07 1.07)">
            <path id="path3001" d="M-536.107,0V12A49.008,49.008,0,0,1-585.115,61h-12a7.492,7.492,0,0,0,7.444,6.649h52.717a7.492,7.492,0,0,0,7.492-7.492V7.444A7.492,7.492,0,0,0-536.107,0" transform="translate(597.11)" fill="#08a9f1"/>
          </g>
          <g id="g3003" transform="translate(7.671 7.671)">
            <path id="path3005" d="M-473.311-460.144l-1.5,1.5-46.965.545h-3.351a2.043,2.043,0,0,1-2.043-2.043v-50.317a2.043,2.043,0,0,1,2.043-2.043h50.316a2.043,2.043,0,0,1,2.043,2.043v3.351Z" transform="translate(527.169 512.504)" fill="#99e6fc"/>
          </g>
          <g id="g3007" transform="translate(13.065 13.065)">
            <path id="path3009" d="M0-430.692H46.965a2.043,2.043,0,0,0,2.043-2.043V-479.7A49.008,49.008,0,0,1,0-430.692" transform="translate(0 479.7)" fill="#62dbfb"/>
          </g>
          <g id="g3011" transform="translate(-0.586 -0.586)">
            <path id="path3013" d="M51.816-212.9H-.9A9.11,9.11,0,0,1-10-222v-28.148a1.607,1.607,0,0,1,1.607-1.607,1.607,1.607,0,0,1,1.607,1.607V-222A5.891,5.891,0,0,0-.9-216.112H51.816A5.891,5.891,0,0,0,57.7-222v-52.717a5.891,5.891,0,0,0-5.885-5.885H-.9a5.891,5.891,0,0,0-5.885,5.885v20.482a1.607,1.607,0,0,1-1.607,1.607A1.607,1.607,0,0,1-10-254.231v-20.482a9.11,9.11,0,0,1,9.1-9.1H51.816a9.11,9.11,0,0,1,9.1,9.1V-222A9.11,9.11,0,0,1,51.816-212.9Z" transform="translate(10 283.813)"/>
          </g>
          <g id="g3015" transform="translate(6.063 6.063)">
            <path id="path3017" d="M-488.537-385.952h-50.317A3.655,3.655,0,0,1-542.5-389.6v-50.317a3.655,3.655,0,0,1,3.651-3.651h50.317a3.655,3.655,0,0,1,3.651,3.651v38.166a1.607,1.607,0,0,1-1.607,1.607,1.607,1.607,0,0,1-1.607-1.607v-38.166a.437.437,0,0,0-.436-.436h-50.317a.437.437,0,0,0-.436.436V-389.6a.436.436,0,0,0,.436.436h50.317a.436.436,0,0,0,.436-.436v-8.064a1.607,1.607,0,0,1,1.607-1.607,1.607,1.607,0,0,1,1.607,1.607v8.064A3.655,3.655,0,0,1-488.537-385.952Z" transform="translate(542.504 443.57)"/>
          </g>
          <g id="g3019" transform="translate(14.224 14.256)">
            <path id="path3021" d="M.511-6.785h-8.9A1.607,1.607,0,0,1-10-8.393,1.607,1.607,0,0,1-8.393-10h8.9A1.607,1.607,0,0,1,2.118-8.393,1.607,1.607,0,0,1,.511-6.785Z" transform="translate(10 10)"/>
          </g>
          <g id="g3023" transform="translate(14.224 52.274)">
            <path id="path3025" d="M-5.667-6.785H-8.393A1.607,1.607,0,0,1-10-8.393,1.607,1.607,0,0,1-8.393-10h2.725A1.607,1.607,0,0,1-4.06-8.393,1.607,1.607,0,0,1-5.667-6.785Z" transform="translate(10 10)"/>
          </g>
          <g id="g3027" transform="translate(14.224 19.208)">
            <path id="path3029" d="M-5.667-6.785H-8.393A1.607,1.607,0,0,1-10-8.393,1.607,1.607,0,0,1-8.393-10h2.725A1.607,1.607,0,0,1-4.06-8.393,1.607,1.607,0,0,1-5.667-6.785Z" transform="translate(10 10)"/>
          </g>
          <g id="g3031" transform="translate(40.869 12.595)">
            <path id="path3033" d="M-51.8-82.092a6.564,6.564,0,0,1-2.073-.118,1.7,1.7,0,0,1-1.063-1.081c-.262-.85.168-1.412.711-2.124.431-.564,1.217-1.594,2.543-3.488a4.1,4.1,0,0,0,.63-1.206l.012-.1a.55.55,0,0,0-.544-.48.549.549,0,0,0-.538.441,1.607,1.607,0,0,1-1.887,1.267,1.607,1.607,0,0,1-1.267-1.887A3.77,3.77,0,0,1-51.587-93.9a3.768,3.768,0,0,1,3.763,3.763,1.608,1.608,0,0,1-.013.2l-.042.326a1.606,1.606,0,0,1-.028.159,6.939,6.939,0,0,1-1.145,2.388c-.479.685-.89,1.26-1.241,1.744l1.2-.012a1.607,1.607,0,0,1,1.627,1.587,1.607,1.607,0,0,1-1.587,1.627C-50.26-82.1-51.146-82.092-51.8-82.092Z" transform="translate(55.31 93.9)"/>
          </g>
          <g id="g3035" transform="translate(51.084 15.64)">
            <path id="path3037" d="M-8.392-55.519a1.6,1.6,0,0,1-1.291-.648,1.607,1.607,0,0,1,.322-2.243,6.877,6.877,0,0,0,2.368-4.445,1.607,1.607,0,0,1,1.78-1.413A1.607,1.607,0,0,1-3.8-62.489a10.158,10.158,0,0,1-3.635,6.652A1.6,1.6,0,0,1-8.392-55.519Z" transform="translate(10.001 64.279)"/>
          </g>
          <g id="g3039" transform="translate(49.235 12.85)">
            <path id="path3041" d="M-53.656-33.851a4.049,4.049,0,0,1,4.044,4.044,4.049,4.049,0,0,1-4.044,4.044A4.049,4.049,0,0,1-57.7-29.807,4.049,4.049,0,0,1-53.656-33.851Zm0,4.873a.83.83,0,0,0,.829-.829.83.83,0,0,0-.829-.829.83.83,0,0,0-.829.829A.83.83,0,0,0-53.656-28.977Z" transform="translate(57.7 33.851)"/>
          </g>
          <g id="g3043" transform="translate(20.28 27.697)">
            <path id="path3045" d="M-131.851-3.943a10.276,10.276,0,0,1-10.265-10.264,10.276,10.276,0,0,1,10.265-10.265,10.215,10.215,0,0,1,5.74,1.754,1.607,1.607,0,0,1,.432,2.232,1.607,1.607,0,0,1-2.232.432,7.012,7.012,0,0,0-3.94-1.2,7.058,7.058,0,0,0-7.05,7.05,7.058,7.058,0,0,0,7.05,7.05,5.356,5.356,0,0,0,3.682-1.312,5.352,5.352,0,0,0,.54-.558,1.607,1.607,0,0,1,2.264-.2,1.607,1.607,0,0,1,.2,2.264,8.566,8.566,0,0,1-.865.892A8.591,8.591,0,0,1-131.851-3.943Z" transform="translate(142.116 24.472)"/>
          </g>
          <g id="g3047" transform="translate(38.444 33.973)">
            <path id="path3049" d="M-80.789,4.254h-.219a5.26,5.26,0,0,1-5.4-5.228V-8.393A1.607,1.607,0,0,1-84.8-10a1.607,1.607,0,0,1,1.607,1.607V-.974a2.036,2.036,0,0,0,2.186,2.013h.219A2.036,2.036,0,0,0-78.6-.974V-8.393A1.607,1.607,0,0,1-77-10a1.607,1.607,0,0,1,1.607,1.607V-.974A5.26,5.26,0,0,1-80.789,4.254Z" transform="translate(86.409 10)"/>
          </g>
        </g>
      </g>
    </g>
  </g>
</svg>
