<svg xmlns="http://www.w3.org/2000/svg" xmlns:xlink="http://www.w3.org/1999/xlink" width="115" height="115" viewBox="0 0 115 115">
  <defs>
    <clipPath id="clip-path">
      <rect id="Rectangle_411479" data-name="Rectangle 411479" width="115" height="115" transform="translate(800.781 1954)" fill="#e8bad8" opacity="0.41"/>
    </clipPath>
  </defs>
  <g id="Group_1207063" data-name="Group 1207063" transform="translate(5802 627)">
    <g id="Mask_Group_1099684" data-name="Mask Group 1099684" transform="translate(-6602.781 -2581)" clip-path="url(#clip-path)">
      <g id="Group_1206940" data-name="Group 1206940" transform="translate(799.781 1960.273)">
        <g id="Group_1206939" data-name="Group 1206939">
          <ellipse id="Ellipse_12823" data-name="Ellipse 12823" cx="28.658" cy="28.658" rx="28.658" ry="28.658" transform="translate(56.527 44.289)" fill="#7fe5cf"/>
          <ellipse id="Ellipse_12824" data-name="Ellipse 12824" cx="20.842" cy="20.842" rx="20.842" ry="20.842" fill="#7fe5cf"/>
        </g>
      </g>
    </g>
    <g id="Page-1" transform="translate(-5780 -605)">
      <g id="_013---Iron" data-name="013---Iron">
        <g id="Icons" transform="translate(1.172 1.172)">
          <rect id="Rectangle" width="68" height="68" rx="10" transform="translate(0.145 0.144)" fill="#0377bc"/>
          <path id="Path" d="M13.376,4H11.032A7.032,7.032,0,0,0,4,11.032V55.565A7.032,7.032,0,0,0,11.032,62.6H55.565A7.032,7.032,0,0,0,62.6,55.565V11.032A7.032,7.032,0,0,0,55.565,4Z" transform="translate(0.688 0.688)" fill="#02a9f4" fill-rule="evenodd"/>
          <path id="Path-2" data-name="Path" d="M48.516,4H45a7.032,7.032,0,0,1,7.032,7.032V55.565A7.032,7.032,0,0,1,45,62.6h3.516a7.032,7.032,0,0,0,7.032-7.032V11.032A7.032,7.032,0,0,0,48.516,4Z" transform="translate(7.737 0.688)" fill="#0377bc" fill-rule="evenodd"/>
          <g id="Group_1207061" data-name="Group 1207061" transform="translate(12.891 8.203)">
            <path id="Path-3" data-name="Path" d="M12.172,54.47h2.344A1.172,1.172,0,0,0,15.688,53.3V41.579H27.407a1.172,1.172,0,0,0,1.172-1.172V38.063a1.172,1.172,0,0,0-1.172-1.172H15.688v-8.2H28.579a1.172,1.172,0,0,0,1.172-1.172V25.172a1.015,1.015,0,0,0-.07-.375,1.172,1.172,0,0,0-1.1-.8H12.172A1.172,1.172,0,0,0,11,25.172V53.3A1.172,1.172,0,0,0,12.172,54.47Z" transform="translate(-11 -4.076)" fill="#f5f5f5" fill-rule="evenodd"/>
            <path id="Shape" d="M50.931,38.547C50.087,32.395,45.9,28,40.547,28,34.535,28,30,33.543,30,40.891v.586c0,10.712,6.61,12.305,10.547,12.305a9.828,9.828,0,0,0,8.478-4.022,1.179,1.179,0,0,0-.977-1.838H44.83a1.228,1.228,0,0,0-.718.254,5.889,5.889,0,0,1-3.564.918c-2.613,0-5.285-.75-5.766-5.86h13.97a2.353,2.353,0,0,0,2.344-2.344A16.784,16.784,0,0,0,50.931,38.547Zm-16.02,0c.656-3.387,2.754-5.86,5.637-5.86s4.981,2.473,5.637,5.86Z" transform="translate(-7.733 -3.388)" fill="#f5f5f5"/>
            <path id="Path-4" data-name="Path" d="M23.842,16.236c-.516.414-1.036.82-1.558,1.225-.558.434-1.116.867-1.668,1.311A4.459,4.459,0,0,0,19,22.231,1.172,1.172,0,0,0,20.172,23.4h8.2a1.172,1.172,0,0,0,0-2.344h-6.7a1.9,1.9,0,0,1,.408-.461c.543-.436,1.091-.863,1.641-1.289.53-.411,1.055-.82,1.583-1.243.763-.611,1.569-1.266,2.317-1.975A5.274,5.274,0,0,0,29.3,10.885a5.169,5.169,0,0,0-8.009-2.9A5.774,5.774,0,0,0,19,12.642a1.172,1.172,0,1,0,2.344,0,3.469,3.469,0,0,1,1.335-2.767,2.826,2.826,0,0,1,4.35,1.594,2.969,2.969,0,0,1-1.017,2.923C25.329,15.037,24.567,15.657,23.842,16.236Z" transform="translate(-9.625 -6.995)" fill="#f5f5f5" fill-rule="evenodd"/>
            <path id="Shape-2" data-name="Shape" d="M35.274,9.359a2.959,2.959,0,0,1,3.1,1.77,1.173,1.173,0,1,0,2.016-1.2,5.24,5.24,0,0,0-5.112-2.915C32.681,7.015,30,8.773,30,11.7v6.44a5.281,5.281,0,1,0,2.344-4.383V11.7A2.676,2.676,0,0,1,35.274,9.359Zm0,5.851a2.93,2.93,0,1,1-2.93,2.923A2.93,2.93,0,0,1,35.274,15.211Z" transform="translate(-7.733 -6.999)" fill="#f5f5f5"/>
          </g>
        </g>
        <g id="Icons_copy">
          <path id="Shape-3" data-name="Shape" d="M57.425,0H12.891A12.907,12.907,0,0,0,0,12.891V57.425A12.907,12.907,0,0,0,12.891,70.316H57.425A12.907,12.907,0,0,0,70.316,57.425V12.891A12.907,12.907,0,0,0,57.425,0ZM67.973,57.425A10.56,10.56,0,0,1,57.425,67.973H12.891A10.56,10.56,0,0,1,2.344,57.425V12.891A10.56,10.56,0,0,1,12.891,2.344H57.425A10.56,10.56,0,0,1,67.973,12.891Z"/>
          <path id="Path-5" data-name="Path" d="M54.33,4H19.172a1.172,1.172,0,0,0,0,2.344H54.33a5.867,5.867,0,0,1,5.86,5.86V56.737a5.867,5.867,0,0,1-5.86,5.86H51.986a1.172,1.172,0,0,0,0,2.344H54.33a8.213,8.213,0,0,0,8.2-8.2V12.2A8.213,8.213,0,0,0,54.33,4Z" transform="translate(3.095 0.688)" fill-rule="evenodd"/>
          <path id="Path-6" data-name="Path" d="M47.362,62.6H12.2a5.867,5.867,0,0,1-5.86-5.86V12.2a5.867,5.867,0,0,1,5.86-5.86h2.344a1.172,1.172,0,1,0,0-2.344H12.2A8.213,8.213,0,0,0,4,12.2V56.737a8.213,8.213,0,0,0,8.2,8.2H47.362a1.172,1.172,0,0,0,0-2.344Z" transform="translate(0.688 0.688)" fill-rule="evenodd"/>
          <g id="Group_1207062" data-name="Group 1207062" transform="translate(12.891 28.127)">
            <path id="Shape-4" data-name="Shape" d="M11,26.344V54.47a2.344,2.344,0,0,0,2.344,2.344h2.344a2.344,2.344,0,0,0,2.344-2.344V43.923H28.579a2.344,2.344,0,0,0,2.344-2.344V39.235a2.344,2.344,0,0,0-2.344-2.344H18.032v-5.86H29.751a2.344,2.344,0,0,0,2.344-2.344V26.344A2.344,2.344,0,0,0,29.751,24H13.344A2.344,2.344,0,0,0,11,26.344Zm18.751,2.344H16.86a1.172,1.172,0,0,0-1.172,1.172v8.2a1.172,1.172,0,0,0,1.172,1.172H28.579v2.344H16.86a1.172,1.172,0,0,0-1.172,1.172V54.47H13.344V26.344H29.751Z" transform="translate(-11 -24)"/>
            <path id="Shape-5" data-name="Shape" d="M35.362,40.2H46.636a1.172,1.172,0,0,0,1.151-1.395C46.985,34.672,44.32,32,41,32s-5.986,2.672-6.788,6.809A1.172,1.172,0,0,0,35.362,40.2ZM41,34.344c1.791,0,3.313,1.341,4.1,3.516H36.9C37.686,35.685,39.208,34.344,41,34.344Z" transform="translate(-7.013 -22.624)"/>
            <path id="Shape-6" data-name="Shape" d="M30,42.649c0,12.164,8.2,13.477,11.719,13.477a10.927,10.927,0,0,0,9.448-4.537,2.352,2.352,0,0,0-1.948-3.667H46A2.4,2.4,0,0,0,44.6,48.4a4.714,4.714,0,0,1-2.876.694c-1.875,0-3.738-.3-4.411-3.516H49.923a3.525,3.525,0,0,0,3.516-3.516,18.012,18.012,0,0,0-.175-2.5C52.33,32.753,47.579,28,41.719,28,35.039,28,30,34.046,30,42.063Zm2.344-.586c0-6.68,4.03-11.719,9.376-11.719,4.661,0,8.452,3.921,9.223,9.538a15.773,15.773,0,0,1,.152,2.181,1.18,1.18,0,0,1-1.172,1.172H35.953a1.172,1.172,0,0,0-1.172,1.282c.589,6.2,4.242,6.921,6.938,6.921A6.992,6.992,0,0,0,46,50.267l3.225.009a8.69,8.69,0,0,1-7.507,3.506c-4.276,0-9.376-1.931-9.376-11.133Z" transform="translate(-7.733 -23.312)"/>
          </g>
          <path id="Path-7" data-name="Path" d="M24.842,17.236c-.516.414-1.036.82-1.558,1.225-.558.434-1.116.867-1.668,1.311A4.459,4.459,0,0,0,20,23.231,1.172,1.172,0,0,0,21.172,24.4h8.2a1.172,1.172,0,0,0,0-2.344h-6.7a1.9,1.9,0,0,1,.408-.461c.543-.436,1.091-.863,1.641-1.289.53-.411,1.055-.82,1.583-1.243.763-.611,1.569-1.266,2.317-1.975A5.274,5.274,0,0,0,30.3,11.885a5.169,5.169,0,0,0-8.009-2.9A5.774,5.774,0,0,0,20,13.642a1.172,1.172,0,0,0,2.344,0,3.469,3.469,0,0,1,1.335-2.767,2.826,2.826,0,0,1,4.35,1.594,2.969,2.969,0,0,1-1.017,2.923c-.683.646-1.445,1.266-2.169,1.845Z" transform="translate(3.439 1.379)" fill-rule="evenodd"/>
          <path id="Shape-7" data-name="Shape" d="M36.274,10.359a2.959,2.959,0,0,1,3.1,1.77,1.173,1.173,0,1,0,2.016-1.2,5.24,5.24,0,0,0-5.112-2.915C33.681,8.015,31,9.773,31,12.7v6.44a5.281,5.281,0,1,0,2.344-4.383V12.7a2.676,2.676,0,0,1,2.93-2.344Zm0,5.851a2.93,2.93,0,1,1-2.93,2.923A2.93,2.93,0,0,1,36.274,16.211Z" transform="translate(5.33 1.375)"/>
        </g>
      </g>
    </g>
  </g>
</svg>
